<ttFont>
<head>
    <!-- Most of this table will be recalculated by the compiler -->
    <tableVersion value="1.0"/>
    <fontRevision value="1.0"/>
    <checkSumAdjustment value="0xc097d990"/>
    <magicNumber value="0x5f0f3cf5"/>
    <flags value="00000000 00000011"/>
    <unitsPerEm value="1000"/>
    <created value="Sun May 26 03:52:41 2024"/>
    <modified value="Sun May 26 17:53:39 2024"/>
    <xMin value="-18"/>
    <yMin value="-157"/>
    <xMax value="861"/>
    <yMax value="793"/>
    <macStyle value="00000000 00000000"/>
    <lowestRecPPEM value="3"/>
    <fontDirectionHint value="2"/>
    <indexToLocFormat value="0"/>
    <glyphDataFormat value="0"/>
  </head>
          <CharString index="0">
            492 227 hstem
            29 123 32 129 vstem
            112 502 rmoveto
            24 22 14 90 2 33 1 19 -2 23 -13 14 -17 18 -46 2 -23 -9 -11 -4 -9 -8 -4 -10 -11 -25 10 -29 2 -28 1 -23 2 -68 17 -16 15 -15 33 0 15 14 rrcurveto
            158 -10 -103 callsubr
            -21 3 -26 1 -19 -12 -11 -7 -7 -15 -1 -13 -1 -22 5 -21 2 -21 -97 callsubr
            -13 30 -2 16 12 rrcurveto
            endchar
          </CharString>
          <CharString index="1">
            rmoveto
            22 1 25 7 13 18 12 19 -1 26 -88 callsubr
            3 -85 callsubr
            1 -96 callsubr
            1 -12 -72 3 -13 hhcurveto
            -55 callsubr
            -7 -94 callsubr
            -24 2 -33 14 -23 7 -80 callsubr
            45 -10 203 -1 45 3 rrcurveto
            return
          </CharString>
          <CharString index="2">
            -371 495 227 hstem
            29 123 vstem
            109 503 -103 callsubr
            -18 2 -21 1 -17 -6 -10 -4 -10 -8 -4 -10 -11 -26 10 -29 2 -27 -97 callsubr
            -14 30 -1 16 12 rrcurveto
            endchar
          </CharString>
          <CharString index="3">
            -100 212 140 hstem
            18 409 vstem
            358 208 -106 callsubr
            endchar
          </CharString>
          <CharString index="4">
            rmoveto
            23 17 13 77 4 28 3 21 3 21 -6 20 -6 19 -15 12 -20 3 return
          </CharString>
          <CharString index="5">
            -29 -68 -20 -72 -24 -69 rrcurveto
            -15 -5 -8 -25 -15 hhcurveto
            -18 1 -8 29 -3 17 -5 26 -20 153 -7 25 -7 30 -12 34 -26 17 -35 21 -67 -17 -33 -26 -11 -9 -11 -12 -3 -14 -3 -12 3 -13 5 -11 15 -33 16 -33 12 -35 rrcurveto
            19 -54 9 -60 30 -50 13 -24 23 -21 26 -9 27 -9 30 -1 28 5 return
          </CharString>
          <CharString index="6">
            27 40 12 52 -4 48 -2 25 -8 26 -14 20 -12 16 -15 13 -19 8 -20 8 -22 3 -22 3 -41 5 -103 2 -22 35 rrcurveto
            -5 8 0 12 2 9 4 19 12 18 17 10 17 11 21 5 20 3 23 4 24 1 23 -3 26 -3 27 -8 26 4 14 2 15 7 10 11 29 35 -3 67 -27 37 rrcurveto
            return
          </CharString>
          <CharString index="7">
            19 -20 25 -14 25 -11 37 -17 40 -11 40 -9 10 -2 11 -4 7 -7 27 -28 -33 -40 -39 5 -40 6 -41 1 -40 7 -14 2 -16 4 -14 -5 -12 -4 -10 -11 -6 -12 rrcurveto
            -19 -36 -7 -70 27 -30 return
          </CharString>
          <CharString index="8">
            -22 17 -78 -1 -28 -2 rrcurveto
            23 3 22 23 vvcurveto
            1 18 -1 20 -8 16 -5 11 -10 9 -11 5 -26 11 -53 -1 -21 -17 -10 -8 -6 -13 -2 -12 rrcurveto
            return
          </CharString>
          <CharString index="9">
            rmoveto
            -2 41 27 48 37 18 15 7 17 2 15 -2 52 -8 36 -49 -7 -52 -5 -36 -25 -38 -34 -13 -56 -22 -67 43 -3 61 rrcurveto
            endchar
          </CharString>
          <CharString index="10">
            1 -24 2 -67 17 -17 rrcurveto
            14 return
          </CharString>
          <CharString index="11">
            -86 -84 callsubr
            -18 -19 -2 -19 hhcurveto
            return
          </CharString>
          <CharString index="12">
            38 -61 -27 -89 callsubr
            -34 11 -31 -92 callsubr
            return
          </CharString>
          <CharString index="13">
            -12 -5 -11 -9 -6 -11 -13 return
          </CharString>
          <CharString index="14">
            -30 9 -33 -1 -31 -4 -27 -3 -28 -6 -24 -13 -23 -13 -19 -19 -15 -21 -6 19 -6 21 -12 16 return
          </CharString>
          <CharString index="15">
            4 -13 8 -14 12 -8 34 -25 56 8 28 33 rrcurveto
            return
          </CharString>
          <CharString index="16">
            -8 -94 callsubr
            -23 2 -34 14 -22 return
          </CharString>
          <CharString index="17">
            8 -5 10 -2 10 -1 30 -4 30 5 30 -2 -2 -13 -5 -66 1 -14 1 -14 4 -16 11 return
          </CharString>
          <CharString index="18">
            -12 -5 -10 -11 -7 -11 -18 -27 -4 return
          </CharString>
          <CharString index="19">
            -5 22 -3 15 -7 17 -14 7 -5 return
          </CharString>
          <CharString index="20">
            1 23 4 23 10 21 18 37 37 40 30 -28 13 -12 6 -19 5 -17 4 -14 return
          </CharString>
          <CharString index="21">
            9 -82 7 -82 -6 -82 -2 -26 -4 -26 2 -26 1 -17 6 -18 10 -13 rrcurveto
            return
          </CharString>
          <CharString index="22">
            -6 1 -6 1 -15 return
          </CharString>
          <CharString index="23">
            2 -15 1 rrcurveto
            1 return
          </CharString>
          <CharString index="24">
            13 19 10 20 5 10 2 11 -2 return
          </CharString>
          <CharString index="25">
            26 22 23 25 18 17 -83 callsubr
            return
          </CharString>
          <CharString index="26">
            5 -37 -34 -7 -37 16 -33 -12 -34 -13 -6 -60 32 -20 return
          </CharString>
          <CharString index="27">
            -12 14 -9 14 -3 return
          </CharString>
          <CharString index="28">
            rmoveto
            6 5 5 7 3 7 4 14 1 35 -7 12 return
          </CharString>
          <CharString index="29">
            rmoveto
            21 2 26 7 12 18 13 18 -1 27 -5 22 return
          </CharString>
          <CharString index="30">
            -31 10 -41 -5 -23 -23 -42 -44 27 -152 6 -60 return
          </CharString>
          <CharString index="31">
            13 4 12 10 8 11 24 38 -30 139 -3 45 return
          </CharString>
          <CharString index="32">
            -1 12 -4 13 -8 9 -29 32 -58 12 -36 -25 return
          </CharString>
          <CharString index="33">
            22 42 -7 55 -32 34 -7 7 -11 6 -11 1 return
          </CharString>
          <CharString index="34">
            12 32 15 32 9 33 7 22 5 23 -2 23 return
          </CharString>
          <CharString index="35">
            32 71 rrcurveto
            -174 107 rmoveto
            2 18 4 18 8 return
          </CharString>
          <CharString index="36">
            1 18 -5 15 -3 7 -5 7 -6 4 rrcurveto
            return
          </CharString>
          <CharString index="37">
            4 rrcurveto
            endchar
          </CharString>
          <CharString index="38">
            13 -10 1 rrcurveto
            -8 -34 -6 -3 -8 hvcurveto
            return
          </CharString>
          <CharString index="39">
            -29 -33 rrcurveto
            -11 -10 -15 -10 -15 hhcurveto
            -40 return
          </CharString>
          <CharString index="40">
            20 -27 -20 vhcurveto
            -8 -6 -5 -9 -4 -8 return
          </CharString>
          <CharString index="41">
            14 -6 14 -8 20 -1 23 1 21 rrcurveto
            return
          </CharString>
          <CharString index="42">
            1 -21 -1 -18 return
          </CharString>
          <CharString index="43">
            2 rrcurveto
            endchar
          </CharString>
          <CharString index="44">
            281 -52 callsubr
            22 3 22 return
          </CharString>
          <CharString index="45">
            1 1 2 return
          </CharString>
          <CharString index="46">
            rmoveto
            23 49 9 59 -11 53 -8 return
          </CharString>
          <CharString index="47">
            231 130 197 130 return
          </CharString>
          <CharString index="48">
            16 44 39 -13 75 -36 47 rrcurveto
            return
          </CharString>
          <CharString index="49">
            -69 48 -98 -13 -48 -69 rrcurveto
            -27 return
          </CharString>
          <CharString index="50">
            -21 21 -34 26 18 rrcurveto
            endchar
          </CharString>
          <CharString index="51">
            3 22 9 66 -74 return
          </CharString>
          <CharString index="52">
            -19 -65 callsubr
            return
          </CharString>
          <CharString index="53">
            604 rmoveto
            1 1 return
          </CharString>
          <CharString index="54">
            rrcurveto
            hintmask 10110000
            return
          </CharString>
          <CharString index="55">
            rmoveto
            14 17 7 return
          </CharString>
        <CharString name=".notdef">
          -245 endchar
        </CharString>
        <CharString name="A">
          60 5 13 190 115 410 16 hstem
          17 148 vstem
          546 640 rmoveto
          2 4 -5 10 -3 5 -12 23 -12 26 -23 14 -23 15 -28 11 -28 1 rrcurveto
          -8 -9 2 -4 -8 hvcurveto
          -5 -3 0 -8 5 -3 6 -3 28 1 6 -1 24 -4 25 -9 18 -16 9 -8 24 -39 5 -10 -4 -9 11 -4 5 9 rrcurveto
          -618 vmoveto
          17 9 16 13 7 17 7 15 0 17 -5 15 -3 10 -17 56 -2 10 -10 38 -42 217 -7 39 -6 38 -4 40 -12 37 -8 25 -13 25 -19 18 -35 33 -72 13 -41 -25 rrcurveto
          -61 -38 -48 -60 -38 -61 -49 -80 -38 -89 -21 -91 -8 -39 -32 -94 24 -32 6 -9 10 -6 10 -4 31 -11 50 6 19 27 11 15 1 63 1 19 rrcurveto
          13 73 7 1 12 hvcurveto
          27 2 28 1 27 1 5 -30 23 -107 17 -24 32 -45 76 -7 48 25 rrcurveto
          -306 420 rmoveto
          19 39 23 39 32 30 rrcurveto
          -30 13 -167 3 -30 vhcurveto
          -46 -2 -47 -1 -46 -5 13 43 17 43 19 41 rrcurveto
          -120 -437 rmoveto
          11 2 12 2 10 5 6 3 16 8 2 6 2 7 -8 5 -5 -5 -5 -7 -25 -9 -9 -1 -32 -6 -37 4 -29 17 rrcurveto
          3 -5 -3 5 -6 hhcurveto
          -10 2 -2 -13 8 -5 31 -21 39 -9 39 7 rrcurveto
          endchar
        </CharString>
        <CharString name="B">
          121 -32 20 42 132 115 135 175 132 24 13 hstemhm
          27 234 5 10 175 193 -185 152 6 14 hintmask 1111001100000000
          249 690 rmoveto
          -8 18 -16 14 -16 11 -21 14 -27 5 -25 4 rrcurveto
          hintmask 0110000010000000
          -2 -8 1 -1 -2 hvcurveto
          -6 -1 -1 -8 5 -3 rrcurveto
          2 8 -2 2 hhcurveto
          hintmask 1111001100000000
          25 -5 26 -8 20 -15 12 -8 9 -11 6 -13 5 -12 18 8 -6 12 rrcurveto
          hintmask 0100000010000000
          -29 -669 rmoveto
          17 14 11 20 8 20 68 -38 89 -18 76 19 rrcurveto
          hintmask 0101010100000000
          23 6 22 12 18 16 64 55 15 102 -50 67 -20 26 -27 21 -28 15 41 21 37 31 28 36 54 71 -16 113 -72 53 -82 61 -148 -21 -75 -68 -19 -17 -16 -19 -15 -20 rrcurveto
          -4 24 -2 27 -15 20 -10 15 -17 9 -17 5 -28 7 -34 -5 -24 -18 -18 -13 -11 -23 -6 -21 rrcurveto
          -9 -34 -1 -35 -35 vvcurveto
          1 -98 10 -98 18 -97 10 -57 5 -60 25 -52 rrcurveto
          hintmask 1111001100000000
          7 -14 10 -13 13 -10 rrcurveto
          hintmask 0011010100000000
          13 -10 17 -7 17 -1 rrcurveto
          16 18 6 10 13 hvcurveto
          62 397 rmoveto
          -28 16 3 41 15 29 16 32 30 27 33 15 14 6 16 4 16 -1 42 -3 22 -45 -14 -39 rrcurveto
          hintmask 1000101001000000
          -9 -22 -18 -19 -19 -13 -28 -20 -62 -25 -29 17 rrcurveto
          52 -252 rmoveto
          -15 3 -16 5 -11 11 -31 28 18 49 40 12 37 11 67 -23 26 -29 6 -6 5 -10 -1 -9 -1 -23 -34 -15 -23 -4 -22 -5 -24 0 -21 5 rrcurveto
          -69 91 rmoveto
          0 1 0 1 -1 0 -3 0 0 -2 2 1 1 vhcurveto
          198 -293 rmoveto
          41 3 43 11 34 23 19 13 17 18 9 21 2 4 4 12 -1 4 -2 6 -9 1 -3 -6 -1 -3 -6 -15 -2 -2 -8 -14 -14 -11 -13 -9 -33 -23 -42 -10 -40 -1 rrcurveto
          -1 -18 -18 3 -18 hhcurveto
          -7 -8 1 -5 -5 hvcurveto
          -7 -3 1 -5 6 -4 2 -2 2 -1 3 -1 rrcurveto
          10 52 -5 1 10 hvcurveto
          endchar
        </CharString>
        <CharString name="C">
          -16 19 83 487 88 26 20 hstemhm
          24 211 171 71 hintmask 11011000
          56 -54 callsubr
          -62 callsubr
          vvcurveto
          hintmask 11111000
          17 -82 callsubr
          9 3 9 3 -1 -69 callsubr
          -49 -16 -43 -39 -22 -46 rrcurveto
          hintmask 11011000
          -4 -9 11 -7 7 7 rrcurveto
          421 -498 rmoveto
          12 15 10 17 5 19 rrcurveto
          7 23 5 25 25 vvcurveto
          34 -38 -67 callsubr
          -14 -34 5 -39 -16 -32 -6 -11 -8 -9 -11 -6 -16 -9 -21 -3 -18 4 -13 3 -12 9 -10 10 -26 25 -12 38 -9 35 -15 68 -1 72 9 69 rrcurveto
          5 41 11 43 25 32 18 25 41 25 29 -11 13 -5 10 -13 5 -12 rrcurveto
          7 -16 2 -19 -17 vvcurveto
          -15 -2 -17 7 -12 vhcurveto
          12 -19 28 1 15 17 4 5 2 7 1 7 6 23 -1 26 -5 23 -7 27 -18 23 -19 18 -27 26 -31 17 -36 9 -123 31 -138 -80 -34 -121 -13 -49 -4 -51 1 -50 rrcurveto
          1 -50 6 -52 17 -48 18 -52 34 -51 45 -32 103 -74 151 16 78 99 rrcurveto
          endchar
        </CharString>
        <CharString name="CR">
          -245 endchar
        </CharString>
        <CharString name="D">
          145 -43 21 26 -21 582 124 51 11 hstemhm
          34 207 8 18 228 176 hintmask 01101010
          267 677 rmoveto
          -11 31 -33 23 -31 10 rrcurveto
          3 -7 -27 7 -7 hhcurveto
          -6 -2 -8 -3 5 hvcurveto
          2 -1 7 -2 2 -1 23 -6 23 -10 19 -15 11 -9 9 -11 5 -14 4 -12 18 5 -4 13 rrcurveto
          -87 -647 rmoveto
          19 11 14 20 10 20 61 -40 79 -25 73 9 27 4 27 9 21 16 42 30 32 44 24 45 42 78 22 93 -2 89 -1 57 -13 60 -31 48 -21 32 -32 27 -35 14 rrcurveto
          -64 27 -81 -5 -64 -28 -37 -16 -31 -28 -27 -30 rrcurveto
          hintmask 01111110
          -3 25 1 28 -15 21 -17 24 -36 12 -30 -3 -19 -2 -20 -8 -14 -13 -17 -17 -8 -24 -6 -23 -11 -37 -3 -39 -2 -39 -5 -82 5 -83 8 -83 5 -56 0 -59 20 -53 rrcurveto
          18 -46 51 -29 44 25 rrcurveto
          hintmask 10101010
          154 125 rmoveto
          -13 2 -12 5 -10 8 -20 15 -13 24 -8 24 -13 36 -5 40 1 38 rrcurveto
          48 6 51 23 42 vhcurveto
          18 34 35 28 38 11 22 7 28 -2 19 -14 25 -18 17 -30 9 -30 25 -78 -9 -95 -40 -72 -14 -25 -20 -23 -26 -14 -19 -10 -23 -6 -21 4 rrcurveto
          218 -159 rmoveto
          13 9 22 27 15 vvcurveto
          7 -9 3 -4 -7 vhcurveto
          -6 -12 -7 -12 -11 -9 -32 -25 -44 -12 -41 -2 -24 -1 -24 6 -25 2 rrcurveto
          hintmask 01101010
          -7 1 -7 1 -6 -4 rrcurveto
          1 -1 0 -1 hhcurveto
          hintmask 10101010
          -9 -3 7 -11 9 -2 27 -4 27 -7 27 1 rrcurveto
          44 46 13 26 35 hvcurveto
          endchar
        </CharString>
        <CharString name="E">
          5 -37 19 44 134 126 144 96 137 70 20 hstem
          35 213 vstem
          61 703 rmoveto
          25 21 36 14 31 -5 21 -3 20 -10 17 -12 7 -4 6 -6 8 1 9 1 0 12 -7 7 -3 3 -17 10 -4 2 -17 9 -18 8 -19 2 -30 3 -32 -10 -25 -18 rrcurveto
          -13 -9 -21 -20 16 -1 rrcurveto
          4 3 3 2 3 hvcurveto
          281 -677 rmoveto
          35 85 4 28 22 hvcurveto
          5 6 3 8 1 8 4 18 1 44 -11 14 rrcurveto
          11 -9 -16 4 -13 hhcurveto
          -22 2 -22 -5 -22 -3 -48 -6 -49 -4 -48 1 rrcurveto
          43 -8 43 44 vvcurveto
          63 2 64 -7 63 7 10 1 11 1 10 3 8 3 8 3 4 7 rrcurveto
          7 8 2 12 11 vvcurveto
          1 15 -2 15 -4 14 -4 15 -10 16 -14 7 -33 17 -128 -3 -37 -3 -5 30 2 30 2 30 rrcurveto
          2 38 38 4 38 hhcurveto
          20 95 -1 3 19 hvcurveto
          9 2 8 4 7 7 30 29 -11 60 -38 18 rrcurveto
          14 -29 -34 1 -32 hhcurveto
          -60 -60 -7 -9 -59 hvcurveto
          -30 59 -82 15 -39 -55 -20 -29 -8 -38 -5 -35 rrcurveto
          -8 -51 0 -52 -52 vvcurveto
          1 -57 2 -229 21 -53 6 -15 29 -13 15 -2 77 -11 78 -4 78 1 rrcurveto
          62 -54 rmoveto
          17 2 -3 17 -17 -2 -58 -7 -58 -6 -58 6 rrcurveto
          -4 -18 2 -4 hhcurveto
          -7 -2 1 -10 7 -1 rrcurveto
          -5 29 28 -3 29 hhcurveto
          39 39 5 4 38 hvcurveto
          endchar
        </CharString>
        <CharString name="Euro">
          61 -54 20 53 83 126 90 -77 86 30 91 -85 97 129 87 28 18 hstemhm
          89 211 171 71 hintmask 1101011001000000
          121 -54 callsubr
          1 -62 callsubr
          rrcurveto
          hintmask 1101011101000000
          16 -82 callsubr
          10 3 9 3 -2 -69 callsubr
          -48 -16 -44 -39 -22 -46 rrcurveto
          hintmask 1101011001000000
          -4 -9 12 -7 6 7 rrcurveto
          330 -567 rmoveto
          35 15 33 24 23 30 12 15 10 17 5 19 7 23 5 25 1 25 rrcurveto
          34 -39 -67 callsubr
          -13 -34 4 -39 -16 -32 -5 -11 -9 -9 -10 -6 -17 -9 -20 -3 -19 4 -25 6 -21 25 -12 23 -14 26 -8 30 -5 29 32 1 32 -6 31 4 rrcurveto
          13 1 14 4 9 9 16 17 -1 33 -18 17 -6 6 -9 3 -8 1 rrcurveto
          hintmask 1101011011000000
          -17 3 -80 -10 -17 -1 rrcurveto
          hintmask 1101101011000000
          14 0 14 14 vvcurveto
          30 -4 31 -3 30 -1 rrcurveto
          16 18 2 10 12 hvcurveto
          16 15 2 30 -16 17 rrcurveto
          14 -12 -23 3 -18 hhcurveto
          -27 1 -26 -3 -26 -2 6 38 12 40 24 29 20 25 41 23 28 -15 13 -7 9 -14 5 -15 rrcurveto
          4 -14 2 -15 -15 vvcurveto
          1 -15 -3 -17 8 -12 12 -19 27 1 15 17 5 5 1 7 1 7 6 23 -1 26 -5 23 -6 27 -19 23 -19 18 -21 21 -27 16 -28 10 -35 12 -39 2 -36 -6 rrcurveto
          -67 -11 -68 -41 -38 -57 rrcurveto
          hintmask 1110011011000000
          -21 -31 -12 -38 -6 -38 -18 5 -35 0 -13 -13 -12 -14 -2 -31 8 -17 4 -8 9 -6 9 -4 rrcurveto
          -5 13 16 -1 14 hhcurveto
          -15 1 -15 1 -15 vhcurveto
          -15 2 -17 2 -13 -7 -7 -4 -6 -8 -2 -8 -5 -19 5 -31 16 -10 17 -10 21 4 19 2 15 -61 35 -62 50 -38 rrcurveto
          hintmask 1101011001000000
          70 -54 95 -12 82 33 rrcurveto
          3 -65 rmoveto
          8 5 8 4 6 7 rrcurveto
          5 4 -4 9 -7 hhcurveto
          -9 -1 -8 -6 -8 -5 -25 -14 -30 -9 -28 -1 -26 -1 -25 5 -24 7 -10 2 -34 15 -8 6 -7 6 -9 -11 7 -5 12 -10 13 -8 14 -6 rrcurveto
          -11 32 33 -9 33 hhcurveto
          32 1 33 9 27 16 rrcurveto
          endchar
        </CharString>
        <CharString name="F">
          -16 226 20 23 158 295 18 hstemhm
          33 208 hintmask 10110000
          42 685 rmoveto
          15 15 19 13 21 6 30 9 36 -10 27 -17 6 -4 8 -5 7 1 9 2 -1 13 -7 6 -5 4 -26 12 -6 3 -22 9 -26 3 -23 -5 -28 -6 -26 -17 -18 -22 rrcurveto
          -11 -13 9 -9 12 12 rrcurveto
          157 -675 rmoveto
          21 3 24 11 9 19 rrcurveto
          hintmask 11110000
          17 38 -27 146 -3 42 66 8 68 -3 65 14 11 2 12 3 9 6 21 17 -9 45 -8 25 -6 16 -12 15 -15 5 -34 12 -125 -10 -35 -6 rrcurveto
          -7 30 0 32 31 vvcurveto
          32 4 32 6 32 3 26 2 106 2 23 12 32 16 4 42 -16 33 -6 14 -11 10 -14 5 -31 13 -35 -2 -33 -3 -58 -4 -57 -11 -57 -14 -26 47 -60 18 -43 -32 rrcurveto
          -61 -45 12 -165 6 -76 7 -81 7 -82 12 -80 4 -26 10 -77 18 -17 -53 callsubr
          19 -18 59 0 25 5 rrcurveto
          120 208 rmoveto
          27 4 27 3 27 1 rrcurveto
          6 24 -2 3 5 hvcurveto
          10 5 -6 13 -11 1 -18 1 -78 -11 -17 -4 -4 -1 -4 1 -3 -2 -4 -3 1 -6 4 -3 3 -1 8 0 3 1 rrcurveto
          endchar
        </CharString>
        <CharString name="G">
          -9 18 83 118 102 269 86 28 18 hstemhm
          23 213 172 70 -48 82 hintmask 11101010
          58 -54 callsubr
          0 -62 callsubr
          rrcurveto
          hintmask 11111010
          16 26 23 23 25 18 16 -83 callsubr
          10 3 9 3 -2 13 -9 1 rrcurveto
          -9 -34 -6 -3 -8 hvcurveto
          -48 -16 -43 -39 -22 -46 rrcurveto
          hintmask 11101010
          -5 -9 12 -7 7 7 rrcurveto
          276 -583 rmoveto
          48 8 48 24 34 36 14 15 13 18 9 19 7 13 1 15 4 14 7 28 3 29 -4 27 -3 18 -7 20 -15 9 rrcurveto
          5 -9 -11 2 -11 hhcurveto
          -26 1 -88 -4 -23 -12 -6 -4 -5 -6 -3 -7 -9 -20 4 -33 19 -12 8 -6 9 -1 10 -1 26 -2 26 4 26 4 rrcurveto
          -24 -5 -25 -12 -21 vhcurveto
          -11 -20 -18 -20 -22 -8 -13 -4 -13 1 -12 4 -18 7 -14 14 -11 15 -16 23 -9 27 -6 28 -17 71 -1 75 10 73 6 36 9 38 21 30 rrcurveto
          hintmask 11101100
          21 30 42 30 32 -17 14 -8 9 -16 5 -15 6 -18 0 -18 1 -18 rrcurveto
          -10 0 -11 4 -9 vhcurveto
          2 -6 7 -5 7 -3 17 -6 21 8 6 18 7 19 2 21 -3 20 -3 25 -11 25 -15 20 -27 36 -44 27 -45 10 -29 7 -31 0 -29 -5 -60 -9 -56 -32 -39 -46 rrcurveto
          -21 -24 -16 -29 -9 -30 -25 -83 -1 -92 20 -85 12 -49 21 -49 33 -39 rrcurveto
          hintmask 11101010
          57 -67 87 -32 87 14 rrcurveto
          80 -42 rmoveto
          27 12 23 20 20 23 10 11 -15 10 -9 -11 -23 -27 -33 -18 -33 -12 -3 -2 -15 -4 -2 -2 -6 -4 2 -9 7 -2 10 -2 31 13 9 -70 callsubr
        </CharString>
        <CharString name="H">
          79 288 109 297 21 hstemhm
          43 15 306 15 30 175 -171 171 hintmask 11110100
          379 639 rmoveto
          1 1 5 1 vvcurveto
          2 4 13 14 4 3 9 9 13 5 12 4 17 5 17 3 17 1 rrcurveto
          15 17 -1 -7 14 hvcurveto
          -1 1 5 -2 2 hhcurveto
          11 -2 7 14 -9 7 -10 10 -39 4 -14 -1 -37 -2 -42 -11 -25 -27 -9 -11 -13 -19 9 -11 4 -5 7 4 1 6 rrcurveto
          -158 -626 rmoveto
          25 3 30 11 14 22 24 41 -23 144 -6 47 rrcurveto
          5 36 37 2 36 hhcurveto
          5 6 0 1 4 hvcurveto
          7 -56 0 -58 2 -56 1 -20 0 -22 10 -17 7 -13 15 -10 15 -2 21 -4 22 0 21 5 11 2 10 4 8 6 33 28 -6 108 -1 44 -1 64 -1 65 1 65 rrcurveto
          44 2 44 -1 43 vhcurveto
          -1 19 -1 19 -7 18 -4 10 -8 10 -9 6 -10 6 -12 2 -11 1 rrcurveto
          hintmask 11111000
          -35 4 -64 -10 -17 -30 -10 -16 -2 -20 -1 -18 -4 -51 4 -52 5 -50 rrcurveto
          -1 1 -4 0 vhcurveto
          1 -4 -17 0 -4 hhcurveto
          -32 -1 -32 -1 -31 -3 -3 60 -4 59 -6 59 -2 20 -3 19 -7 18 -10 24 -16 23 -21 14 -29 18 -72 -9 -31 -14 -23 -11 -17 -24 -8 -24 -6 -21 3 -23 5 -21 rrcurveto
          13 -60 21 -58 8 -61 5 -39 19 -226 8 -39 3 -14 6 -14 10 -11 9 -10 12 -6 13 -3 rrcurveto
          hintmask 11110100
          20 -7 23 0 22 2 rrcurveto
          -41 -44 rmoveto
          -7 5 -34 4 -8 2 -12 4 -13 5 -10 9 -8 7 -5 11 -4 11 -16 40 -1 45 -4 43 -1 8 -3 38 -2 7 rrcurveto
          -2 7 -10 -2 -7 vvcurveto
          -1 -6 4 -38 -7 vvcurveto
          3 -37 -1 -39 9 -36 6 -24 10 -25 18 -16 9 -7 10 -5 10 -3 rrcurveto
          -3 9 39 -8 10 hhcurveto
          9 1 3 12 -7 -70 callsubr
        </CharString>
        <CharString name="I">
          -249 49 682 -14 12 hstemhm
          29 238 -213 203 hintmask 10100000
          267 591 rmoveto
          hintmask 01100000
          -2 16 -20 54 -9 13 -11 19 -16 17 -19 9 -11 6 -27 10 -10 -6 -7 -3 3 -10 7 1 4 1 14 -6 4 -1 15 -6 14 -12 11 -12 19 -22 12 -27 8 -27 rrcurveto
          2 -7 1 -9 6 -5 rrcurveto
          hintmask 10100000
          5 -3 7 4 6 vvcurveto
          hintmask 10010000
          -108 -542 rmoveto
          12 1 12 1 12 3 50 14 9 90 2 52 3 61 1 61 -2 61 -2 54 -5 55 -14 52 -8 32 -12 34 -20 27 -25 32 -43 15 -40 -10 -8 -2 -9 -4 -6 -6 rrcurveto
          -9 -9 -3 -13 -2 -13 -5 -29 8 -31 -1 -30 -3 -54 -3 -55 -5 -54 -3 -39 -17 -173 8 -38 5 -27 17 -26 23 -15 rrcurveto
          -15 24 31 -2 28 hhcurveto
          endchar
        </CharString>
        <CharString name="J">
          33 10 187 102 17 hstem
          361 190 vstem
          335 23 rmoveto
          33 8 34 14 27 21 24 18 19 25 15 26 27 47 14 54 8 54 18 108 1 111 -11 109 -3 22 -3 24 -12 20 -6 12 -12 10 -13 5 -19 6 -68 -6 -20 -4 rrcurveto
          -12 -3 -15 -6 -6 -11 -9 -16 2 -20 2 -17 13 -97 2 -100 -14 -97 -5 -36 -12 -38 -23 -29 -27 -34 -56 -19 -38 22 -16 9 -14 12 -18 6 -22 8 -27 1 -22 -10 rrcurveto
          -35 -18 -32 -57 4 -39 3 -23 14 -23 19 -14 32 -23 39 -12 38 -7 60 -11 63 3 59 15 rrcurveto
          -125 250 rmoveto
          -16 12 -18 8 -18 9 -26 13 -31 6 -28 -5 -20 -4 -40 -21 -8 -19 -2 -5 7 -5 5 3 12 10 12 11 14 6 17 7 20 2 18 -2 14 -2 14 -6 14 -6 rrcurveto
          10 -6 35 -21 12 1 rrcurveto
          7 2 10 4 -6 hvcurveto
          endchar
        </CharString>
        <CharString name="K">
          18 -1 19 hstemhm
          39 193 -188 178 hintmask 10100000
          hintmask 11000000
          186 42 rmoveto
          15 8 12 12 8 14 8 16 3 18 2 17 2 30 -2 30 -2 30 24 -29 23 -29 26 -27 21 -22 22 -21 26 -16 15 -8 16 -7 17 -2 29 -3 31 9 24 17 rrcurveto
          31 24 27 52 -17 36 -11 23 -28 11 -23 11 -18 10 -17 11 -17 12 -31 21 -31 23 -25 28 -1 1 -3 2 1 1 21 25 24 22 22 24 29 31 26 35 23 36 rrcurveto
          10 17 9 18 5 19 4 12 1 12 -2 11 -5 19 -18 17 -18 8 -8 3 -8 0 -8 -4 -10 -4 -8 -8 -7 -7 -15 -18 -71 -108 -14 -18 rrcurveto
          hintmask 10100000
          -31 -41 -34 -38 -38 -35 rrcurveto
          27 1 151 -3 27 vhcurveto
          -2 24 -2 24 -11 20 -6 11 -9 10 -11 7 -15 9 -19 5 -18 2 -26 3 -46 2 -11 -24 -8 -19 12 -85 -1 -21 -1 -35 -4 -220 -1 -35 -1 -24 -7 -116 5 -24 rrcurveto
          2 -11 5 -11 8 -8 rrcurveto
          hintmask 11000000
          28 -33 67 -6 38 19 rrcurveto
          hintmask 10100000
          279 -35 rmoveto
          20 8 20 9 17 13 6 5 -6 10 -7 -3 -2 -1 -14 -8 -3 -2 -20 -10 -21 -9 -22 -1 -27 -1 -27 7 -24 11 -2 1 -9 4 -2 1 -8 3 -2 -12 6 -7 rrcurveto
          3 -4 19 -8 5 -3 30 -13 39 -3 31 13 rrcurveto
          endchar
        </CharString>
        <CharString name="L">
          -71 753 20 hstemhm
          31 442 -440 186 hintmask 11000000
          326 689 rmoveto
          7 -14 12 -5 5 vhcurveto
          -18 17 -20 16 -23 11 -25 12 -29 3 -28 1 rrcurveto
          -18 -20 -1 -8 -17 hvcurveto
          -12 -5 8 -15 12 5 rrcurveto
          3 8 9 1 8 hhcurveto
          35 2 37 -5 30 -16 26 -12 18 -25 24 -15 rrcurveto
          6 -4 8 4 7 vvcurveto
          47 -634 rmoveto
          23 6 25 7 19 15 9 7 8 10 4 10 12 26 4 32 -8 28 -4 17 -9 16 -13 12 -5 5 -7 4 -7 1 -8 2 -8 -2 -8 -2 rrcurveto
          hintmask 10100000
          -14 -4 -69 -33 -13 -6 -28 -12 -28 -13 -29 -9 4 101 9 102 19 100 8 38 9 39 2 39 1 23 -2 25 -12 20 -6 10 -10 9 -10 5 -46 21 -77 13 -30 -40 rrcurveto
          -12 -15 -8 -66 -2 -18 -14 -95 -6 -97 -3 -97 -2 -44 -2 -44 5 -44 2 -26 6 -27 13 -22 9 -15 11 -13 15 -8 rrcurveto
          -14 26 32 -4 30 hhcurveto
          hintmask 11000000
          66 65 11 16 64 hvcurveto
          endchar
        </CharString>
        <CharString name="M">
          298 4 19 37 103 368 167 29 19 hstemhm
          25 212 288 22 57 214 hintmask 11011110
          352 704 rmoveto
          10 2 -7 11 -8 5 -11 7 -11 6 -12 4 -17 4 -17 1 -16 2 -23 2 -55 -2 -16 -16 -6 -7 6 -10 9 1 3 1 19 6 3 1 rrcurveto
          4 20 21 1 20 hhcurveto
          25 -1 26 -3 21 -13 5 -3 5 -4 6 1 rrcurveto
          412 -622 rmoveto
          13 10 9 16 5 15 8 22 4 22 2 22 11 85 8 86 -10 84 rrcurveto
          hintmask 11111110
          -7 55 -16 57 -31 46 -50 76 -97 50 -77 -50 -36 -23 -23 -41 -16 -40 -23 -58 -10 -64 -6 -62 -6 55 -9 56 -17 54 -13 39 -19 39 -30 30 rrcurveto
          24 -24 -29 12 -34 hhcurveto
          -32 -33 -11 -18 -27 hvcurveto
          -41 -26 -31 -43 -19 -45 -26 -63 -8 -71 1 -68 1 -46 3 -45 6 -46 3 -26 3 -26 7 -26 5 -21 11 -23 17 -13 24 -18 34 -4 31 2 23 1 26 6 16 17 rrcurveto
          13 14 4 22 1 19 1 33 -4 33 -2 32 -6 76 -10 76 8 75 2 17 4 18 9 15 4 6 5 5 5 4 16 9 13 -19 7 -17 9 -22 5 -24 4 -23 rrcurveto
          9 -63 4 -64 10 -63 3 -22 4 -24 15 -17 rrcurveto
          -12 12 18 -5 17 hhcurveto
          1 3 2 -1 1 hvcurveto
          8 -5 21 5 9 4 6 2 6 4 5 5 10 11 6 15 3 15 12 60 3 61 8 61 4 37 5 38 17 33 5 10 11 12 10 -3 23 -6 9 -42 3 -23 rrcurveto
          6 -62 -7 -61 -4 -62 rrcurveto
          -1 -13 -7 -78 -14 vvcurveto
          -1 -22 -1 -24 8 -20 6 -16 9 -10 15 -7 rrcurveto
          hintmask 11011110
          35 -17 72 3 30 25 rrcurveto
          -61 -76 rmoveto
          7 2 2 9 -6 4 rrcurveto
          4 -5 -22 -2 -6 hhcurveto
          -32 -1 -33 14 -25 20 -11 9 -8 12 -5 14 -7 20 0 23 -5 21 rrcurveto
          -3 11 -19 -1 -12 vvcurveto
          -1 -10 8 -38 2 -9 8 -32 16 -20 29 -16 23 -14 27 -11 27 1 rrcurveto
          6 28 1 1 5 hvcurveto
          endchar
        </CharString>
        <CharString name="N">
          73 528 111 35 15 hstem
          46 177 184 186 vstem
          578 588 rmoveto
          -16 43 -41 37 -44 15 -27 9 -29 0 -29 -3 rrcurveto
          -4 -4 -1 -2 -3 hvcurveto
          -3 -3 0 -5 4 -2 rrcurveto
          -3 5 6 1 6 hhcurveto
          13 14 1 -3 14 hvcurveto
          4 -1 20 -8 4 -1 19 -7 18 -9 15 -14 17 -15 12 -19 14 -18 7 -9 12 6 -4 11 rrcurveto
          -367 -519 rmoveto
          18 18 5 29 25 vvcurveto
          -1 88 -22 90 20 85 7 30 11 31 18 25 20 27 43 21 31 -14 13 -7 11 -13 6 -14 12 -24 3 -28 1 -27 1 -61 -11 -60 -9 -60 -6 -40 -11 -41 3 -40 rrcurveto
          1 -16 8 -18 14 -9 18 -13 61 -5 22 4 15 2 17 8 8 13 31 50 14 60 6 59 9 80 -6 85 -26 77 -11 34 -16 34 -23 27 -14 16 -17 14 -20 9 rrcurveto
          -97 43 -130 -32 -49 -94 -6 33 -4 34 -16 30 -8 14 -11 14 -16 7 -28 12 -45 -7 -18 -26 rrcurveto
          -7 -10 -2 -15 -13 vvcurveto
          -25 6 -24 1 -25 vhcurveto
          6 -85 4 -85 1 -86 1 -43 -4 -134 26 -34 9 -11 14 -8 13 -4 35 -9 46 6 25 26 rrcurveto
          endchar
        </CharString>
        <CharString name="NULL">
          -545 endchar
        </CharString>
        <CharString name="O">
          54 -39 12 47 102 438 119 0 -20 hstemhm
          17 180 13 88 191 91 hintmask 11011010
          439 63 rmoveto
          34 20 30 30 22 33 26 40 14 48 8 47 12 77 -3 83 -25 74 -10 32 -16 33 -22 25 -24 28 -32 20 -34 12 -58 20 -70 -1 -55 -26 -18 -9 -17 -13 -15 -14 rrcurveto
          -6 -4 -12 -12 -7 vvcurveto
          -14 -5 -14 -6 -13 -8 -35 -24 -28 -37 -16 -39 -31 -73 -8 -85 15 -78 13 -63 30 -65 50 -41 38 -31 51 -20 49 -4 63 -6 67 17 54 32 rrcurveto
          -146 67 rmoveto
          -18 7 -17 13 -14 14 -30 33 -16 40 -1 44 -1 46 3 48 11 44 rrcurveto
          hintmask 11101110
          5 -26 7 -26 10 -26 11 -29 17 -29 25 -19 13 -10 15 -9 15 -4 26 -6 31 3 23 14 21 13 6 27 -17 17 -11 11 -16 4 -15 4 -41 14 -31 37 -6 45 rrcurveto
          -4 28 1 31 12 26 9 22 18 23 24 6 40 11 44 -41 18 -37 24 -46 6 -55 -1 -51 -1 -49 -9 -52 -25 -42 -15 -25 -21 -24 -25 -14 rrcurveto
          hintmask 11011010
          -29 -16 -40 -1 -31 12 rrcurveto
          46 -170 rmoveto
          55 10 53 24 44 34 9 8 -7 15 -11 -6 -2 -1 -11 -10 -2 -2 -20 -14 -22 -12 -22 -9 -40 -16 -44 -11 -43 3 rrcurveto
          -3 -13 2 -3 hhcurveto
          -9 -7 -10 -3 8 hvcurveto
          29 -10 32 3 29 5 rrcurveto
          endchar
        </CharString>
        <CharString name="P">
          44 -60 callsubr
          43 20 hstemhm
          30 230 -211 202 -199 181 217 127 hintmask 11101010
          554 666 rmoveto
          -2 4 -17 17 -3 4 -10 12 -12 12 -14 8 -29 15 -33 10 -32 3 -19 1 -20 -1 -19 -1 -13 -1 -30 -3 -7 -11 -5 -8 8 -9 8 3 1 1 6 3 1 1 rrcurveto
          20 9 66 -5 21 -5 36 -9 37 -12 27 -24 4 -3 16 -17 4 -3 6 -3 7 6 -3 6 rrcurveto
          hintmask 11100110
          -345 -645 rmoveto
          -76 callsubr
          30 -20 35 -14 36 -3 28 -3 30 3 28 9 128 40 59 142 -44 128 -9 27 -14 26 -19 22 -23 25 -29 22 -33 10 rrcurveto
          -93 callsubr
          -9 11 -12 8 -13 3 rrcurveto
          hintmask 11110010
          -77 callsubr
          rrcurveto
          hintmask 11101010
          -86 callsubr
          hintmask 11100110
          28 -34 74 -3 40 15 rrcurveto
          hintmask 11110010
          51 427 -98 callsubr
        </CharString>
        <CharString name="Q">
          74 36 101 440 117 hstemhm
          26 181 13 86 67 91 35 92 hintmask 11101100
          590 -44 rmoveto
          9 12 7 17 -5 14 -4 15 -14 11 -12 9 -30 21 -30 23 -23 29 35 31 27 42 15 44 20 58 8 63 -2 62 -2 57 -11 60 -27 50 -15 28 -20 26 -24 19 rrcurveto
          -22 17 -25 12 -27 7 -46 14 -52 0 -47 -13 -31 -10 -29 -19 -23 -22 -3 -3 -6 -15 -4 -1 -47 -16 -40 -38 -23 -44 -71 -142 19 -211 133 -87 40 -27 52 -12 49 -1 rrcurveto
          37 38 6 13 35 hvcurveto
          16 -43 21 -45 36 -27 37 -27 53 7 28 36 rrcurveto
          -558 589 rmoveto
          8 11 2 14 7 11 rrcurveto
          hintmask 11111100
          14 20 20 16 20 13 17 11 17 11 19 8 16 6 -8 19 -16 -5 -10 -3 -39 -25 -9 -6 -20 -14 -20 -16 -14 -20 -8 -14 -6 -17 -1 -16 rrcurveto
          -6 8 -3 3 5 vhcurveto
          429 -232 rmoveto
          -4 8 -6 8 -8 5 rrcurveto
          hintmask 11101100
          -17 11 -22 3 -20 5 -17 5 -16 6 -13 12 -13 12 -9 18 -5 17 -12 44 8 57 31 33 10 10 15 9 15 1 15 1 16 -6 13 -9 21 -13 17 -20 11 -23 rrcurveto
          21 -40 7 -48 -46 vvcurveto
          2 -59 -13 -64 -32 -50 1 21 13 73 -9 19 rrcurveto
          -149 -171 rmoveto
          -26 8 -23 18 -17 21 -24 29 -14 39 -1 38 -1 47 3 47 11 46 8 -38 9 -38 19 -33 16 -29 27 -24 30 -12 14 -6 15 -2 15 1 -1 -38 0 -38 5 -37 rrcurveto
          -21 -5 -23 0 -21 6 rrcurveto
          endchar
        </CharString>
        <CharString name="R">
          113 -60 callsubr
          hstemhm
          52 181 0 18 199 128 46 21 hintmask 11011100
          641 439 rmoveto
          3 7 0 37 1 8 rrcurveto
          42 -8 44 -19 38 vhcurveto
          -11 22 -15 20 -18 16 -13 12 -14 10 -16 5 rrcurveto
          -2 -1 2 -2 hhcurveto
          -6 -1 -1 -6 2 -5 3 -6 20 -16 5 -4 rrcurveto
          47 -43 28 -65 -65 -9 0 -9 -9 vvcurveto
          -1 -5 -1 -17 1 -4 4 -8 12 0 2 9 rrcurveto
          -119 -437 rmoveto
          18 4 17 13 11 14 16 22 20 40 -17 21 -11 14 -61 21 -16 7 -44 19 -43 23 -36 31 82 8 71 54 31 77 23 55 0 68 -20 57 -9 27 -14 26 -19 22 rrcurveto
          -23 25 -29 22 -33 10 -93 callsubr
          rrcurveto
          hintmask 11101100
          -9 11 -12 8 -13 3 -77 callsubr
          -86 callsubr
          hintmask 11011100
          28 -34 74 -3 40 15 -76 callsubr
          rrcurveto
          0 6 -3 1 -1 vhcurveto
          33 -42 25 -47 34 -41 27 -33 28 -34 34 -27 18 -14 20 -12 22 -9 13 -5 15 -2 13 4 rrcurveto
          -262 446 -98 callsubr
        </CharString>
        <CharString name="S">
          -28 -11 26 28 178 305 190 19 22 hstemhm
          27 467 -461 158 81 130 -110 202 hintmask 10011000
          57 656 rmoveto
          4 1 11 14 3 3 33 36 53 15 49 10 16 4 -1 19 -17 -1 -30 -2 -31 -7 -28 -13 -13 -6 -11 -8 -12 -9 -7 -5 -24 -24 -4 -8 -5 -9 4 -14 10 4 rrcurveto
          hintmask 11110101
          199 -608 rmoveto
          48 2 49 4 44 20 24 11 23 18 15 23 -101 callsubr
          -7 8 -9 8 -10 5 -29 14 -34 1 -33 1 -69 2 -72 -12 -62 -31 -35 -18 -33 -26 -20 -34 -13 -23 -6 -27 -4 -27 -4 -30 0 -32 9 -29 6 -19 11 -17 13 -14 rrcurveto
          -100 callsubr
          10 -10 13 -7 13 -4 23 -7 24 -1 24 -1 rrcurveto
          35 34 3 2 35 hvcurveto
          hintmask 10010010
          105 -49 rmoveto
          13 2 14 1 10 9 8 7 -6 13 -11 -4 -15 -6 -73 -5 -17 -1 -18 -2 2 -25 18 1 rrcurveto
          11 54 8 2 10 hvcurveto
          endchar
        </CharString>
        <CharString name="T">
          -13 -18 17 9 -21 584 137 -129 123 34 18 hstemhm
          186 218 hintmask 10011100
          232 739 rmoveto
          3 13 -62 callsubr
          hvcurveto
          6 2 0 8 -5 2 rrcurveto
          3 -7 -25 -2 -7 hhcurveto
          -17 -1 -110 -1 -18 -1 -11 -1 0 -13 11 -1 rrcurveto
          2 15 0 3 hhcurveto
          48 49 1 2 48 hvcurveto
          98 -698 rmoveto
          20 8 18 15 12 18 10 16 6 18 3 19 8 41 0 43 -3 43 -3 54 -6 53 -7 54 rrcurveto
          hintmask 10101100
          -5 41 -5 41 -8 40 rrcurveto
          1 -3 3 1 vvcurveto
          2 4 -3 13 -1 4 51 -2 94 4 21 47 10 22 -5 38 -19 16 -12 9 -15 2 -15 1 -27 2 -27 0 -27 -2 -20 -1 -113 2 -20 -1 rrcurveto
          -51 -51 -5 -51 hhcurveto
          -18 -18 1 -1 -17 hvcurveto
          -10 -1 -10 -4 -6 -7 rrcurveto
          hintmask 10011100
          -6 -6 -3 -9 -2 -8 -6 -27 8 -47 24 -15 rrcurveto
          -5 10 12 -2 11 hhcurveto
          20 -1 21 4 20 2 8 1 48 3 8 1 5 -108 2 -108 -9 -107 -4 -44 -5 -43 -1 -44 rrcurveto
          -14 1 -14 5 -14 vhcurveto
          3 -10 8 -10 8 -6 15 -12 18 -6 18 -5 27 -6 31 0 26 10 rrcurveto
          45 -36 rmoveto
          8 4 7 4 5 6 3 5 -4 7 -7 -1 -5 -1 -4 -2 -5 -3 -25 -16 -31 -8 -30 -1 rrcurveto
          -34 -36 5 16 -30 hvcurveto
          -3 2 -3 2 -3 -1 rrcurveto
          hintmask 01011100
          -6 -2 -7 -5 3 hvcurveto
          8 -10 36 -11 13 -3 rrcurveto
          hintmask 10011100
          48 -10 55 4 42 24 rrcurveto
          endchar
        </CharString>
        <CharString name="U">
          126 11 -21 723 16 hstem
          31 170 385 24 vstem
          615 421 rmoveto
          11 -5 62 11 vvcurveto
          -2 48 3 49 -11 46 -5 24 -15 23 -19 16 -10 8 -10 8 -12 3 -6 1 -22 -1 -6 -2 -8 -3 -1 -9 8 -3 10 -4 13 5 10 -4 20 -8 15 -18 10 -19 rrcurveto
          15 -27 0 -33 -1 -31 rrcurveto
          -22 4 -111 4 -22 vhcurveto
          2 -13 19 2 13 vvcurveto
          -282 -364 rmoveto
          29 13 24 23 19 25 28 38 15 48 11 46 6 -26 5 -27 7 -26 5 -24 7 -26 14 -21 7 -10 9 -9 11 -7 11 -6 13 -3 13 -1 rrcurveto
          23 26 9 16 17 hvcurveto
          9 8 7 10 3 12 7 27 -11 29 -11 25 -18 41 -20 40 -13 43 -16 49 -8 51 -4 51 -4 48 4 49 -13 47 -4 16 -8 16 -14 9 -10 8 -13 4 -13 1 rrcurveto
          -19 2 -20 0 -17 -7 -9 -3 -10 -6 -5 -8 -15 -25 -12 -109 -3 -29 -7 -65 -1 -66 -10 -64 -4 -34 -9 -34 -18 -30 -7 -12 -12 -12 -14 -4 -19 -6 -27 5 -14 15 rrcurveto
          -15 14 -5 22 -3 21 -13 81 7 86 21 79 10 39 13 38 1 40 rrcurveto
          18 -3 20 -11 15 vhcurveto
          -24 34 -66 12 -40 -14 -12 -4 -12 -9 -7 -10 -26 -35 -9 -141 -3 -43 -4 -60 -1 -60 10 -59 5 -31 7 -31 13 -28 17 -38 29 -35 35 -23 31 -21 38 -13 38 -1 rrcurveto
          27 -2 29 3 25 12 rrcurveto
          -83 -67 rmoveto
          8 3 4 10 -6 6 -4 4 -6 0 -5 -1 -19 -2 -69 13 -18 5 -20 7 -19 12 -15 15 -8 8 -8 9 -5 11 -4 9 -12 -2 -2 -10 -1 -7 10 -14 4 -5 rrcurveto
          12 -17 15 -15 18 -11 32 -18 38 -6 36 -4 8 -1 28 -3 8 -70 callsubr
        </CharString>
        <CharString name="V">
          50 -25 17 72 8 671 15 hstem
          438 143 vstem
          419 713 rmoveto
          5 7 23 12 8 3 32 10 37 1 31 -13 rrcurveto
          -2 5 4 -5 6 hhcurveto
          9 2 13 4 -9 hvcurveto
          -34 17 -40 3 -37 -11 -14 -5 -33 -15 -6 -13 -3 -7 10 -5 4 6 rrcurveto
          -45 -656 rmoveto
          56 46 39 66 30 65 38 86 26 93 8 93 4 39 19 99 -28 28 rrcurveto
          12 -12 -20 5 -18 hhcurveto
          -27 -1 -31 -11 -15 -22 -12 -20 12 -81 -1 -23 -5 -72 -12 -71 -21 -69 -14 -47 -18 -49 -32 -37 -2 19 -23 107 -3 19 -20 92 -22 93 -37 87 -11 26 -7 29 -21 19 rrcurveto
          -24 22 -39 6 -33 -4 -46 -7 -52 -34 3 -47 1 -9 2 -8 4 -9 15 -32 15 -32 12 -34 31 -84 28 -85 27 -86 12 -38 9 -39 17 -35 11 -24 16 -24 22 -16 rrcurveto
          39 -28 73 -3 37 30 rrcurveto
          -107 -82 rmoveto
          8 1 10 0 6 5 5 3 -1 8 -5 2 rrcurveto
          2 -7 -27 -4 -7 hhcurveto
          -24 -25 6 14 -21 hvcurveto
          -9 6 -29 36 -6 10 3 9 -13 2 -3 -9 -1 -5 6 -9 3 -4 15 -22 16 -24 24 -11 25 -11 29 -7 28 -64 callsubr
        </CharString>
        <CharString name="W">
          297 4 19 28 166 371 102 37 20 hstemhm
          24 213 59 22 287 213 hintmask 10111100
          318 598 rmoveto
          9 -7 38 -3 9 vhcurveto
          -8 32 -16 20 -28 17 rrcurveto
          13 -23 -27 11 -27 hhcurveto
          -6 -28 -2 -1 -6 hvcurveto
          -7 -2 -2 -9 6 -4 rrcurveto
          -3 6 21 1 7 hhcurveto
          32 1 33 -14 24 -20 12 -9 8 -12 5 -14 7 -20 -1 -23 6 -21 3 -11 18 2 1 12 rrcurveto
          hintmask 11111110
          376 -518 rmoveto
          41 26 31 43 18 45 rrcurveto
          27 63 7 71 68 vvcurveto
          -1 46 -4 46 -5 45 -4 26 -2 26 -7 26 -6 21 -10 23 -18 13 -24 19 -35 3 -30 -2 -24 -1 -29 -7 -15 -20 -16 -23 1 -33 1 -28 4 -73 9 -73 2 -73 rrcurveto
          1 -37 -1 -81 -32 -19 -15 -10 -13 19 -7 17 -10 22 -4 24 -4 23 -9 63 -4 64 -10 63 -3 22 -4 24 -16 17 rrcurveto
          12 -11 -19 5 -16 hhcurveto
          -1 -3 -2 1 -1 hvcurveto
          -11 7 -23 -8 -11 -6 -17 -9 -8 -21 -4 -18 -16 -81 1 -84 -19 -81 -4 -20 -12 -39 -19 -5 -9 -3 -11 11 -5 8 -37 57 32 219 2 69 1 22 1 24 -8 21 rrcurveto
          -6 15 -10 10 -14 7 -35 17 -72 -3 -31 -25 -13 -10 -8 -16 -6 -15 -7 -21 -4 -23 -3 -22 -10 -85 -9 -86 11 -84 8 -62 20 -65 39 -49 24 -31 34 -27 38 -12 rrcurveto
          34 -11 41 2 32 16 16 9 14 13 12 15 21 25 15 31 10 32 18 55 10 57 6 56 6 -55 8 -56 18 -53 13 -40 19 -39 29 -29 rrcurveto
          -24 24 30 -13 34 hhcurveto
          32 33 11 18 27 hvcurveto
          hintmask 10111100
          -20 -60 rmoveto
          6 7 -6 10 -9 -1 -4 -1 -18 -6 -4 -1 rrcurveto
          -4 -20 -20 -1 -21 hhcurveto
          -24 1 -26 4 -21 12 -5 3 -6 4 -5 -1 -11 -1 7 -11 9 -6 10 -7 12 -6 12 -4 16 -4 17 -1 17 -2 22 -1 56 1 16 16 rrcurveto
          endchar
        </CharString>
        <CharString name="X">
          43 703 15 hstem
          567 18 vstem
          583 589 rmoveto
          4 7 -2 10 8 vvcurveto
          -1 24 -7 26 -16 19 -16 19 -25 12 -24 4 -20 4 -45 -5 -14 -15 rrcurveto
          -4 -3 2 -6 5 hhcurveto
          3 3 -62 callsubr
          hvcurveto
          24 10 28 3 24 -8 16 -6 16 -9 11 -12 rrcurveto
          15 -17 4 -25 -23 vvcurveto
          -6 -1 -6 2 -6 vhcurveto
          3 -6 9 0 3 6 rrcurveto
          -485 -573 rmoveto
          68 13 66 140 26 64 3 -4 16 -23 3 -4 16 -26 14 -28 13 -28 11 -25 10 -25 14 -23 7 -10 11 -10 12 -4 45 -13 59 24 19 43 14 30 -7 39 -11 32 rrcurveto
          -29 81 -48 76 -56 66 28 42 37 35 32 38 14 16 15 17 8 20 17 45 -40 48 -45 -18 -19 -7 -17 -15 -15 -15 -28 -30 -22 -34 -23 -33 -2 5 -19 23 -4 5 rrcurveto
          -27 37 -26 39 -36 30 -14 12 -19 10 -19 1 -36 3 -53 -32 -15 -32 -10 -22 -1 -25 8 -23 4 -12 8 -11 7 -11 36 -53 45 -46 35 -53 2 -3 9 -15 2 -3 rrcurveto
          -18 -30 -132 -171 -18 -30 -9 -13 -9 -17 4 -16 3 -13 11 -12 12 -6 19 -10 23 -4 21 -70 callsubr
        </CharString>
        <CharString name="Y">
          16 14 -21 225 16 38 88 hstem
          6 551 vstem
          355 6 rmoveto
          11 6 10 9 7 11 16 28 29 135 7 31 18 81 28 79 30 77 -73 callsubr
          -75 callsubr
          rrcurveto
          -23 -17 -13 -29 -11 -26 -102 callsubr
          -15 -48 -15 -48 -13 -49 rrcurveto
          -5 -19 -5 -20 -19 vvcurveto
          -17 5 -18 10 -12 vhcurveto
          29 -35 64 -6 40 22 rrcurveto
          -157 212 rmoveto
          8 2 0 12 -8 2 -5 1 -26 0 -5 1 -15 2 -15 7 -12 9 -14 11 -11 17 -9 16 -11 21 -9 22 -6 22 -1 5 0 5 -3 4 -5 5 -6 -5 -1 -7 rrcurveto
          -9 12 -33 3 -8 vhcurveto
          9 -24 12 -23 15 -19 14 -17 20 -13 21 -6 15 -4 17 1 16 3 rrcurveto
          endchar
        </CharString>
        <CharString name="Z">
          -16 0 14 -14 27 -23 23 579 124 hstemhm
          17 496 hintmask 01011000
          394 59 rmoveto
          25 2 28 -1 21 14 20 11 8 44 -1 23 -1 13 -2 14 -9 9 -9 9 -14 4 -13 1 -20 2 -20 -4 -19 -4 -22 -4 -90 -24 -22 2 -8 1 -6 5 2 8 rrcurveto
          11 54 130 158 35 43 28 34 29 35 18 40 13 27 8 29 -1 29 -1 18 -6 18 -11 15 -10 14 -16 11 -16 7 rrcurveto
          11 -25 -28 3 -27 hhcurveto
          -57 2 -57 0 -56 -4 -39 -2 -40 -3 -37 -10 -16 -4 -16 -5 -13 -9 -30 -22 0 -55 15 -34 6 -14 10 -15 15 -3 30 -7 105 38 29 8 24 6 23 7 24 2 rrcurveto
          11 2 13 -1 -11 vvcurveto
          -1 -30 -60 -71 -18 -24 -52 -65 -51 -66 -46 -70 -30 -45 -60 -99 24 -49 9 -16 19 -12 18 -3 rrcurveto
          -4 20 21 0 20 hhcurveto
          88 -1 88 13 88 5 rrcurveto
          -128 -59 rmoveto
          46 7 47 1 47 -1 rrcurveto
          hintmask 00111000
          23 -1 23 -4 23 2 rrcurveto
          9 1 13 3 -9 hvcurveto
          hintmask 01011000
          -19 6 -22 0 -20 1 -42 3 -41 -3 -41 -5 rrcurveto
          hintmask 10011000
          -12 -2 -11 -4 -11 -2 -6 -1 -1 -8 5 -4 rrcurveto
          hintmask 01011000
          -2 2 5 1 4 hhcurveto
          endchar
        </CharString>
        <CharString name="a">
          107 50 84 310 118 27 20 32 17 hstemhm
          19 175 145 187 37 18 hintmask 10110110
          589 354 rmoveto
          4 -3 4 -2 4 vhcurveto
          -6 12 -5 13 -1 13 -5 46 12 45 2 46 rrcurveto
          hintmask 11111110
          1 16 0 16 -4 15 -4 12 -6 12 -9 9 -14 17 -18 16 -21 3 -11 2 -11 3 -11 -3 -9 -3 1 -12 9 -2 rrcurveto
          -1 1 7 0 1 hhcurveto
          29 -4 29 -22 14 -26 rrcurveto
          7 -13 1 -16 -15 vvcurveto
          -23 -4 -22 -2 -23 vhcurveto
          -3 -29 0 -29 3 -29 1 -9 9 -27 6 -6 rrcurveto
          5 -7 11 4 9 vvcurveto
          -527 181 rmoveto
          8 14 17 9 15 6 18 6 17 6 18 4 5 1 26 6 4 2 rrcurveto
          hintmask 10110110
          3 12 -2 17 -13 hhcurveto
          hintmask 11111110
          -12 -48 -13 -4 -12 hvcurveto
          -26 -10 -46 -17 2 -28 1 -9 11 0 5 7 rrcurveto
          527 -479 rmoveto
          35 19 28 49 -12 37 -7 22 -20 15 -15 17 -33 36 -23 48 -10 48 rrcurveto
          -11 57 5 58 58 vvcurveto
          21 -2 23 -14 15 vhcurveto
          -19 19 -34 5 -26 -8 -17 -4 -14 -14 -10 -15 -13 -22 -5 -27 -4 -26 -17 21 -20 21 -24 14 -35 21 -49 3 -40 -13 -55 -18 -49 -43 -29 -50 -22 -36 -6 -45 -3 -42 rrcurveto
          -3 -42 5 -43 11 -40 9 -35 16 -34 24 -26 13 -15 17 -12 19 -8 48 -20 61 -1 47 22 34 16 28 30 17 33 15 29 11 31 10 31 6 -43 11 -43 19 -39 rrcurveto
          29 -57 67 -28 56 30 rrcurveto
          -360 84 rmoveto
          -11 8 -7 13 -4 13 rrcurveto
          -10 26 -3 29 29 vvcurveto
          hintmask 10110110
          1 29 2 29 5 28 3 23 6 24 12 20 6 9 6 10 9 7 17 13 31 -7 15 -16 10 -10 5 -14 4 -14 16 -51 2 -58 -14 -52 -9 -30 -31 -56 -31 -8 rrcurveto
          -11 -2 -10 1 -9 7 rrcurveto
          endchar
        </CharString>
        <CharString name="ampersand">
          164 -4 -21 284 164 205 98 hstemhm
          22 221 -134 182 319 19 hintmask 11110100
          411 6 rmoveto
          45 23 40 34 27 42 31 45 16 56 6 54 17 -1 18 -1 18 1 14 2 15 4 12 8 13 10 8 18 2 16 2 19 1 19 -3 19 -2 9 -4 10 -6 7 rrcurveto
          -10 9 -14 5 -13 2 -29 5 -30 1 -30 1 -17 1 -17 0 -17 -2 -13 -2 -15 -4 -7 -10 -8 -11 0 -14 -1 -13 -1 -11 0 -12 -1 -12 -2 -27 -6 -27 -12 -25 rrcurveto
          -11 -22 -19 -21 -23 -11 -23 -10 -27 -2 -25 5 -14 3 -15 5 -12 9 -32 26 -4 48 29 29 7 7 10 5 10 2 28 7 31 -9 28 8 13 3 10 9 4 14 rrcurveto
          5 15 1 16 -1 16 rrcurveto
          14 -2 28 -14 5 vhcurveto
          hintmask 11101100
          3 -7 -35 -6 -8 hhcurveto
          -20 2 -18 13 -7 18 rrcurveto
          -5 14 -1 15 15 vvcurveto
          2 20 2 22 10 18 rrcurveto
          22 11 26 19 25 hhcurveto
          27 26 -15 -16 21 hvcurveto
          15 -12 13 -16 19 -6 20 -7 19 18 -2 21 rrcurveto
          3 -3 10 1 2 vhcurveto
          1 5 -9 10 -3 4 -21 32 -32 25 -35 14 -32 13 -34 12 -34 1 -47 1 -52 -12 -38 -29 -37 -28 -25 -45 -12 -45 -9 -35 4 -39 14 -33 10 -22 15 -19 19 -14 rrcurveto
          hintmask 11110100
          -26 -8 -24 -13 -20 -17 -33 -30 -26 -41 -10 -43 -13 -60 11 -61 34 -52 28 -43 43 -32 50 -16 rrcurveto
          -9 31 32 -6 33 hhcurveto
          46 48 11 20 41 hvcurveto
          54 -72 rmoveto
          15 1 14 7 12 8 56 35 39 63 21 63 rrcurveto
          1 3 6 19 4 vvcurveto
          2 13 -17 4 -4 -12 rrcurveto
          -1 -1 -3 -1 -1 vhcurveto
          -10 -43 -21 -40 -27 -34 -21 -28 -49 -47 -34 7 -7 2 -5 -9 5 -6 4 -5 16 -1 6 1 rrcurveto
          endchar
        </CharString>
        <CharString name="asciicircum">
          -120 678 -20 hstem
          18 389 vstem
          135 326 rmoveto
          12 12 6 16 5 16 6 22 34 121 8 21 28 -58 11 -66 29 -58 7 -14 10 -13 13 -8 10 -6 13 -1 12 1 21 2 23 8 15 15 6 6 4 8 -1 9 rrcurveto
          -1 26 -44 96 -11 24 -20 44 -16 47 -27 41 -29 41 -57 16 -38 -34 -16 -14 -10 -21 -9 -19 -2 -3 -7 -16 -1 -2 -38 -61 -31 -65 -24 -67 rrcurveto
          -4 -12 -4 -13 -12 vvcurveto
          1 -28 38 -15 28 -3 20 -3 16 6 14 14 rrcurveto
          endchar
        </CharString>
        <CharString name="asciitilde">
          -29 189 207 -120 122 hstemhm
          20 477 hintmask 01100000
          hintmask 10100000
          394 189 rmoveto
          14 3 15 8 11 10 17 14 12 18 10 19 9 18 8 18 3 20 3 19 4 22 -8 18 -12 25 -34 2 -20 -19 -20 -18 -11 -27 -19 -20 -5 -6 -8 -5 -8 -1 rrcurveto
          -13 -3 -30 12 -10 9 rrcurveto
          hintmask 01100000
          -27 23 -30 23 -32 16 -35 18 -47 -5 -34 -18 -14 -8 -12 -12 -9 -13 -23 -28 -15 -36 -4 -36 -1 -11 2 -13 7 -9 13 -17 34 -4 19 12 25 17 13 30 24 17 rrcurveto
          3 5 5 2 6 hhcurveto
          10 9 -5 -5 9 hvcurveto
          hintmask 10100000
          6 -3 31 -19 6 -4 32 -21 34 -18 37 -10 15 -4 17 -2 16 -70 callsubr
        </CharString>
        <CharString name="asterisk">
          -187 391 323 hstemhm
          135 86 -83 73 hintmask 10100000
          191 393 rmoveto
          9 2 9 5 4 7 10 16 -9 54 -3 19 17 -13 48 -44 22 2 rrcurveto
          6 5 5 4 4 hvcurveto
          10 12 17 24 -6 14 -10 20 -62 25 -20 9 14 9 59 37 10 13 7 8 1 9 -5 10 rrcurveto
          hintmask 11000000
          -8 17 -15 21 -17 -6 -13 -5 -43 -37 -11 -10 rrcurveto
          15 1 54 -6 13 vhcurveto
          -3 4 -4 4 -5 1 -14 5 -32 0 -11 -9 -20 -14 10 -51 2 -24 rrcurveto
          8 -14 -42 34 -16 hhcurveto
          -17 -1 -18 -23 -6 -15 -3 -7 0 -8 4 -6 10 -14 53 -20 15 -7 -8 -6 -50 -35 -8 -7 rrcurveto
          -7 -5 -6 -8 -8 vvcurveto
          hintmask 10100000
          -1 -14 14 -24 12 -8 6 -4 8 -1 8 2 14 4 41 35 10 10 1 -12 -1 -57 2 -11 4 -21 26 0 21 -70 callsubr
        </CharString>
        <CharString name="at">
          234 -109 79 -79 83 78 85 -70 105 210 74 103 81 75 21 hstemhm
          27 125 42 116 100 133 102 106 hintmask 1010111111100000
          151 634 rmoveto
          2 1 9 4 2 1 90 40 97 33 97 2 56 1 57 -17 48 -28 3 -2 15 -12 3 -1 8 -4 7 9 -6 7 -7 7 -37 24 -10 5 rrcurveto
          23 -44 -52 9 -51 hhcurveto
          -102 -2 -101 -37 -91 -47 -9 -5 6 -14 10 3 rrcurveto
          395 -728 rmoveto
          hintmask 0110111111100000
          18 4 36 19 8 17 10 23 -20 22 -25 2 -24 1 -23 -8 -23 -7 -37 -10 -40 -1 -38 6 -63 10 -59 32 -43 46 -28 29 -22 36 -11 39 -13 41 0 44 3 43 rrcurveto
          5 56 13 60 33 46 33 46 53 36 55 11 51 10 56 6 50 -15 30 -9 28 -20 21 -25 31 -38 19 -49 9 -49 8 -45 0 -48 -11 -45 -5 -22 -7 -22 -13 -18 rrcurveto
          -15 -19 -25 -14 -15 18 -33 39 37 137 4 51 2 14 0 15 -2 15 -2 10 -3 10 -7 7 -31 33 -62 -6 -23 -37 -38 29 -64 2 -41 -23 -40 -23 -36 -40 -12 -45 rrcurveto
          hintmask 1001111111100000
          -17 -61 2 -70 25 -58 27 -65 73 -31 61 32 rrcurveto
          hintmask 1010111111100000
          26 14 21 22 17 23 5 -27 14 -22 22 -15 36 -24 50 -4 41 12 29 8 27 19 21 22 39 41 23 58 4 56 5 74 -8 80 -35 65 -26 50 -46 41 -50 26 rrcurveto
          -45 23 -50 16 -51 2 -56 3 -56 -13 -53 -18 -56 -19 -55 -28 -41 -42 -28 -30 -21 -37 -16 -38 -32 -76 -12 -89 14 -81 9 -54 22 -55 34 -44 26 -34 35 -30 39 -20 rrcurveto
          40 -21 44 -13 44 -5 73 -10 75 6 72 14 rrcurveto
          hintmask 1001111111100000
          -224 303 rmoveto
          -16 40 1 47 14 40 5 16 11 16 14 9 37 22 19 -55 3 -42 2 -32 -6 -33 -15 -28 rrcurveto
          -13 -6 -16 -24 -14 hhcurveto
          -15 -13 24 13 -5 hvcurveto
          endchar
        </CharString>
        <CharString name="b">
          22 46 104 227 138 76 22 hstem
          28 179 165 179 vstem
          173 11 rmoveto
          10 2 11 3 7 8 13 15 0 24 2 21 12 -9 13 -5 13 -6 32 -13 37 -9 34 4 35 4 34 19 27 23 43 36 28 54 16 53 12 38 2 42 -3 39 rrcurveto
          -4 35 -10 35 -19 29 -15 22 -21 18 -24 11 -44 19 -56 -6 -43 -21 -43 -20 -37 -36 -28 -39 4 21 29 126 4 21 3 22 4 23 -9 20 -7 17 -16 12 -17 7 rrcurveto
          -24 10 -27 5 -26 -3 -14 -1 -14 -5 -10 -10 -11 -10 -8 -15 -5 -15 -18 -45 -7 -48 -5 -48 -9 -85 5 -86 5 -85 3 -45 3 -45 7 -44 4 -22 6 -24 16 -16 rrcurveto
          23 -25 43 -3 34 6 rrcurveto
          123 543 rmoveto
          13 9 13 10 14 7 15 7 17 3 16 1 30 1 31 -5 27 -12 5 -3 6 -4 7 -1 8 -1 6 10 -5 7 -5 7 -25 10 -8 3 -31 12 -37 1 -33 -6 rrcurveto
          -23 -5 -21 -13 -18 -14 -2 -2 -7 -7 -2 -2 -5 -7 6 -11 8 5 rrcurveto
          -46 -377 rmoveto
          -7 17 0 19 1 18 2 29 6 29 10 27 8 22 16 19 19 12 11 7 15 4 11 -6 24 -13 7 -51 -1 -27 -3 -40 -14 -43 -25 -31 -23 -27 -44 2 -13 33 rrcurveto
          endchar
        </CharString>
        <CharString name="backslash">
          -176 9 694 hstem
          8 344 vstem
          341 45 rmoveto
          12 16 1 23 -3 20 -5 35 -9 35 -11 34 -32 107 -35 107 -42 104 -1 3 0 2 -1 2 -13 47 -18 46 -27 40 -9 13 -12 13 -14 6 -24 9 -30 -3 -22 -12 rrcurveto
          -15 -9 -15 -15 -5 -17 -6 -19 5 -22 6 -19 6 -18 45 -102 8 -17 31 -78 27 -80 22 -80 15 -54 10 -55 22 -51 7 -18 14 -18 18 -7 31 -12 50 17 19 27 rrcurveto
          endchar
        </CharString>
        <CharString name="bar">
          -277 -120 891 hstem
          58 163 vstem
          160 -112 rmoveto
          15 6 13 11 9 14 11 17 5 21 3 20 3 22 1 22 1 23 rrcurveto
          2 59 -2 59 59 41 4 254 41 vvcurveto
          43 -1 44 -12 41 vhcurveto
          -7 27 -15 27 -22 17 -27 20 -45 0 -27 -19 -13 -8 -7 -16 -1 -15 -2 -33 7 -33 4 -33 rrcurveto
          1 -10 0 -56 -10 vvcurveto
          -94 1 -93 -5 -93 vhcurveto
          -2 -40 -16 -235 -1 -40 rrcurveto
          -15 2 -16 10 -12 vhcurveto
          22 -27 59 -4 32 14 rrcurveto
          endchar
        </CharString>
        <CharString name="braceleft">
          -148 -25 84 -59 -21 687 76 hstemhm
          87 174 -167 167 hintmask 10101000
          hintmask 10110000
          282 -20 rmoveto
          25 7 26 8 24 12 43 21 -10 68 -44 -19 -18 -9 -34 -18 -15 14 -14 13 -3 54 -1 20 -1 39 0 41 -15 36 rrcurveto
          hintmask 10101000
          -8 21 -19 16 -20 10 -9 5 -9 4 -9 3 16 7 16 8 13 10 17 13 14 19 6 20 15 51 -10 54 -5 52 -3 29 0 57 24 15 12 7 16 -1 14 -1 rrcurveto
          16 -1 17 -4 16 4 28 7 8 45 -23 15 rrcurveto
          6 -10 -12 2 -12 -3 -12 -1 -3 hhcurveto
          -33 6 -35 -3 -33 -7 -47 -9 -47 -33 -23 -42 -20 -35 -9 -43 2 -41 2 -40 10 -39 1 -39 rrcurveto
          -13 -1 -13 -5 -12 vhcurveto
          hintmask 01110000
          -7 -16 -15 -14 -15 -11 -15 -10 -27 -11 10 -16 5 -8 11 -2 8 -4 11 -5 10 -5 8 -8 rrcurveto
          25 -25 -10 -96 -35 vvcurveto
          -20 0 -20 7 -19 vhcurveto
          5 -16 10 -14 12 -11 19 -17 26 -10 26 -4 -53 callsubr
          29 -5 32 -1 29 7 rrcurveto
          endchar
        </CharString>
        <CharString name="braceright">
          -148 -25 84 -63 -21 688 78 hstemhm
          139 172 -165 170 hintmask 01101000
          hintmask 01110000
          234 -14 rmoveto
          21 7 20 13 14 17 rrcurveto
          18 24 4 33 29 vvcurveto
          34 -10 96 22 25 vhcurveto
          hintmask 01101000
          12 12 17 7 16 7 4 2 5 3 2 4 6 12 -17 10 -11 7 -20 13 -20 16 -8 22 -8 22 2 25 3 23 6 38 7 39 -3 39 -3 31 -9 31 -16 27 rrcurveto
          -25 42 -42 29 -49 10 -27 6 -28 2 -28 -2 rrcurveto
          -3 -13 -2 1 -3 hvcurveto
          -15 2 -32 -3 -10 -13 -15 -19 10 -34 22 -7 16 -6 18 5 17 1 13 1 15 1 12 -6 35 -18 -10 -73 -4 -40 -53 callsubr
          -3 -26 -3 -26 1 -27 rrcurveto
          -27 6 -29 16 -22 vhcurveto
          16 -23 27 -13 25 -12 -28 -7 -27 -18 -15 -24 -12 -19 -4 -24 -2 -22 -3 -33 1 -33 -3 -32 -1 -19 -6 -32 -18 -4 -6 -2 -7 2 -6 1 -13 4 -13 7 -13 6 rrcurveto
          -14 6 -18 -3 -4 -16 -4 -15 4 -18 9 -11 20 -24 76 -19 30 -2 rrcurveto
          hintmask 01110000
          28 -1 29 3 27 9 rrcurveto
          endchar
        </CharString>
        <CharString name="bracketleft">
          -219 -27 80 -59 -21 678 74 hstemhm
          50 167 hintmask 01110000
          202 -27 rmoveto
          21 2 23 1 20 8 -53 callsubr
          35 14 1 52 -38 5 -14 2 -14 -4 -14 -2 rrcurveto
          -5 131 0 132 131 25 -2 156 25 vvcurveto
          24 23 -1 4 23 hvcurveto
          25 5 11 31 -17 20 rrcurveto
          24 -20 -78 -9 -32 -9 -52 0 -9 hhcurveto
          -15 -1 -17 -1 -13 -9 rrcurveto
          -10 -7 -6 -14 -13 vvcurveto
          1 -20 6 -121 -19 vvcurveto
          2 -62 -13 -359 5 -62 1 -12 0 -12 5 -11 4 -7 6 -8 7 -4 rrcurveto
          hintmask 01110000
          23 -13 85 1 27 -64 callsubr
        </CharString>
        <CharString name="bracketright">
          -219 -23 76 598 74 hstem
          109 173 vstem
          237 -24 rmoveto
          14 2 15 8 7 12 rrcurveto
          10 16 -1 19 18 vvcurveto
          2 65 -1 64 -1 64 -2 92 -6 92 2 92 rrcurveto
          19 6 121 20 vvcurveto
          1 9 -3 10 -5 7 -12 17 -26 1 -20 1 rrcurveto
          -7 -38 0 -7 hhcurveto
          -34 -88 11 -26 -22 hvcurveto
          -9 -12 0 -20 9 -12 7 -9 13 -3 11 -2 rrcurveto
          -2 20 19 1 20 hhcurveto
          -1 -71 -1 -72 -72 vvcurveto
          1 -128 -1 -128 -5 -129 -14 2 -14 4 -14 -2 -33 -5 -6 -43 27 -18 11 -7 14 -3 12 -2 31 -5 30 -1 31 1 rrcurveto
          19 20 0 4 19 hvcurveto
          endchar
        </CharString>
        <CharString name="c">
          -61 39 186 229 145 83 19 hstem
          14 140 vstem
          437 623 rmoveto
          -12 15 -15 13 -15 11 -24 20 -30 13 -31 6 -26 6 -27 -1 -26 -4 -26 -2 -71 -15 -17 -19 -5 -5 5 -6 7 -1 rrcurveto
          2 7 3 1 2 hvcurveto
          41 15 45 8 44 1 34 2 36 -9 30 -16 23 -12 17 -21 22 -13 7 -4 7 8 -4 6 rrcurveto
          18 -501 rmoveto
          -74 callsubr
          -14 2 -15 -4 -15 -3 -33 -9 -31 -15 -34 -9 -23 -6 -25 0 -22 9 -15 5 -14 -66 callsubr
          -87 callsubr
          4 -16 9 -10 12 -13 19 -5 18 -3 24 -4 29 6 18 -59 callsubr
          -14 19 -18 15 -18 14 -29 20 -35 12 -34 4 -21 3 -22 1 -21 -5 -31 -7 -29 -15 -24 -21 -41 -35 -29 -51 -14 -52 -15 -54 -6 -59 9 -56 9 -55 26 -58 44 -35 rrcurveto
          41 -33 54 -24 53 -4 64 -4 116 30 30 57 rrcurveto
          endchar
        </CharString>
        <CharString name="cent">
          33 -32 737 -251 251 hstemhm
          26 22 52 140 35 120 -120 135 hintmask 10110100
          356 -32 rmoveto
          11 1 12 2 10 6 8 5 5 8 3 8 rrcurveto
          5 16 0 16 16 vvcurveto
          24 6 24 8 23 12 23 12 24 15 13 23 -74 callsubr
          -15 2 -14 -4 -15 -3 -33 -9 -32 -15 -33 -9 -23 -6 -25 0 -22 9 rrcurveto
          -16 5 -13 -66 callsubr
          hintmask 01111000
          -87 callsubr
          3 -16 10 -10 12 -13 19 -5 17 -3 25 -4 28 6 19 -59 callsubr
          -25 33 -37 26 -39 14 2 24 2 24 -3 23 -2 11 -5 12 -8 7 -23 21 -44 0 -24 -19 -10 -8 -6 -13 -1 -13 -3 -20 4 -21 3 -20 -41 -9 -38 -28 -26 -33 rrcurveto
          -46 -57 -24 -77 -2 -73 -1 -48 6 -50 21 -44 rrcurveto
          hintmask 10110100
          13 -29 19 -27 24 -20 28 -24 34 -16 35 -12 -3 -16 -4 -19 6 -15 9 -25 42 -7 27 1 rrcurveto
          -228 97 rmoveto
          -29 33 -23 39 -13 41 -17 57 -1 62 7 59 3 23 2 24 6 24 2 7 -8 6 -7 -4 -4 -2 -1 -6 -1 -4 -12 -53 -7 -54 1 -54 2 -76 28 -83 52 -56 rrcurveto
          13 -14 19 17 -12 14 rrcurveto
          endchar
        </CharString>
        <CharString name="colon">
          -311 12 177 61 178 hstemhm
          28 171 -162 171 hintmask 11100000
          hintmask 11010000
          184 -63 callsubr
          8 66 -73 -95 callsubr
          hintmask 11100000
          -9 -238 -52 callsubr
          22 -56 callsubr
          37 -61 -26 -89 callsubr
          -35 11 -30 -92 callsubr
          endchar
        </CharString>
        <CharString name="comma">
          -350 -6 141 -116 -21 hstemhm
          18 158 hintmask 10100000
          88 -107 rmoveto
          32 22 27 31 16 35 11 26 7 30 -5 27 -3 20 -10 21 -16 13 -22 19 -37 3 -28 -10 rrcurveto
          hintmask 01100000
          -39 -15 -12 -46 15 -39 12 -33 41 -10 33 11 -7 -26 -17 -24 -20 -18 rrcurveto
          hintmask 10100000
          -25 -57 callsubr
        </CharString>
        <CharString name="controlCR">
          -545 endchar
        </CharString>
        <CharString name="controlLF">
          -545 endchar
        </CharString>
        <CharString name="currency">
          -104 132 110 268 18 40 23 hstem
          31 137 133 92 vstem
          311 570 rmoveto
          -5 9 -26 4 -10 3 -36 9 -42 -2 -34 -17 -4 -1 -2 -3 -3 -3 -9 -7 11 -13 9 7 10 9 39 4 13 -1 rrcurveto
          22 23 -3 -8 21 hvcurveto
          4 -1 3 -2 3 -1 10 -4 8 11 -5 10 rrcurveto
          -199 -476 rmoveto
          13 5 16 31 4 13 46 -16 56 1 45 19 3 -5 12 -24 4 -5 7 -8 14 -3 10 2 17 2 16 8 11 12 7 7 6 12 -3 9 -3 11 -26 29 -8 8 rrcurveto
          13 20 8 24 5 23 12 50 -1 56 -19 48 9 10 26 33 1 13 1 8 -4 8 -4 6 -18 24 -30 18 -22 -20 -7 -7 -5 -10 -5 -9 -52 36 -81 5 -57 -28 rrcurveto
          0 0 0 -1 vhcurveto
          -6 9 -7 11 -10 5 -9 5 -12 -4 -9 -4 -13 -5 -23 -19 -3 -13 -2 -5 1 -6 2 -5 6 -12 10 -10 9 -9 -33 -55 -7 -77 20 -62 7 -21 9 -21 14 -17 rrcurveto
          -11 -15 -14 -12 -7 -16 -4 -7 0 -8 3 -7 3 -7 5 -6 5 -5 13 -12 31 -13 16 7 rrcurveto
          110 148 rmoveto
          -14 2 -15 9 -8 12 -10 14 -5 18 -2 17 -2 25 4 26 10 23 7 15 10 15 14 8 11 6 15 0 12 -4 19 -6 16 -13 10 -18 10 -20 1 -24 -4 -22 rrcurveto
          -7 -42 -29 -47 -43 6 rrcurveto
          endchar
        </CharString>
        <CharString name="d">
          -26 -35 19 46 104 198 130 247 20 hstemhm
          13 157 15 18 90 198 hintmask 11110110
          214 575 rmoveto
          -3 5 -7 19 -1 6 -3 18 1 21 8 17 7 17 15 15 17 8 8 4 10 1 9 3 11 5 -3 14 -12 1 rrcurveto
          -11 -12 -4 -5 -10 hvcurveto
          -53 -28 -15 -68 30 -52 2 -3 2 -2 3 -2 6 -2 5 7 -4 5 rrcurveto
          197 -550 rmoveto
          16 2 15 11 9 13 17 26 7 33 3 31 11 88 5 89 -6 87 rrcurveto
          hintmask 11111110
          6 -4 35 6 vvcurveto
          65 -2 66 -19 62 vhcurveto
          -2 8 -6 8 -7 5 -14 10 -17 8 -17 2 -20 2 -21 -3 -19 -4 -26 -7 -27 -12 -16 -21 -10 -12 -4 -16 1 -16 1 -40 16 -38 9 -39 6 -26 6 -27 4 -27 rrcurveto
          hintmask 11110110
          -33 28 -39 27 -43 7 rrcurveto
          hintmask 11111110
          -15 3 -17 0 -15 -4 -29 -8 -27 -17 -19 -23 -24 -29 -15 -37 -6 -37 -11 -62 6 -71 33 -54 21 -34 30 -32 36 -16 15 -6 16 -4 16 -1 26 -1 27 7 23 11 rrcurveto
          hintmask 11110110
          22 10 20 15 18 17 1 -12 0 -13 5 -11 11 -27 49 -4 29 3 rrcurveto
          -213 119 rmoveto
          -7 7 -6 8 -3 9 -16 40 0 43 17 41 16 36 44 19 28 -28 11 -10 4 -16 4 -15 7 -33 -2 -39 -16 -30 -17 -32 -37 -24 -27 24 rrcurveto
          -4 -180 rmoveto
          7 2 1 10 -7 4 rrcurveto
          4 -6 -7 1 -7 hhcurveto
          -19 1 -20 3 -18 6 -21 7 -17 15 -19 11 -6 4 -5 -7 3 -6 2 -8 17 -12 7 -4 20 -14 23 -9 24 -5 9 -1 30 -5 9 3 rrcurveto
          endchar
        </CharString>
        <CharString name="divide">
          -107 57 112 43 140 40 113 hstem
          154 122 vstem
          266 404 -79 callsubr
          -3 4 -3 4 -5 3 -37 19 -49 -6 -18 -38 -5 -12 3 -15 3 -13 2 -10 6 -9 9 -6 23 -17 39 0 23 16 rrcurveto
          88 -196 -106 callsubr
          -95 -140 -79 callsubr
          -6 10 -13 5 -12 3 -36 9 -44 -13 -6 -38 -4 -19 8 -25 16 -11 21 -16 43 0 21 15 rrcurveto
          endchar
        </CharString>
        <CharString name="dollar">
          9 3 18 23 176 306 190 hstemhm
          37 160 27 106 -91 97 -38 202 hintmask 01110100
          hintmask 01111000
          317 -23 rmoveto
          13 14 4 43 -4 19 rrcurveto
          hintmask 01110010
          33 6 33 9 29 18 16 10 14 14 10 16 -101 callsubr
          hintmask 01110100
          -13 16 -20 9 -19 5 rrcurveto
          7 -28 -30 0 -29 hhcurveto
          1 18 1 19 -6 17 -3 8 -6 7 -8 4 rrcurveto
          4 -8 -9 0 -9 hhcurveto
          -24 -2 -28 -8 2 -24 1 -18 4 -17 1 -17 -54 -11 -56 -22 -40 -37 -25 -23 -19 -31 -7 -33 -7 -36 -4 -39 9 -36 5 -22 12 -22 15 -16 rrcurveto
          hintmask 01110010
          -100 callsubr
          rrcurveto
          hintmask 01111000
          20 -22 35 -5 30 -2 29 -2 30 1 29 2 rrcurveto
          -16 -4 -46 11 -11 vhcurveto
          -8 8 13 -3 11 hhcurveto
          19 -2 22 4 13 14 rrcurveto
          hintmask 11110100
          137 45 rmoveto
          18 12 15 17 12 18 11 15 10 16 6 17 6 15 -21 8 -7 -16 -11 -25 -16 -25 -20 -19 -11 -11 -13 -11 -15 -5 -3 -2 -16 -3 -3 -2 -8 -6 3 -11 9 -1 rrcurveto
          19 -1 19 10 16 10 rrcurveto
          endchar
        </CharString>
        <CharString name="e">
          -13 21 14 21 118 139 76 150 104 hstemhm
          15 154 181 135 hintmask 10111100
          hintmask 11111100
          429 107 rmoveto
          35 23 31 36 11 40 4 17 0 19 -8 16 -21 42 -57 14 -38 -28 -30 -23 -14 -39 -27 -27 -11 -12 -16 -9 -16 -2 -22 -4 -25 9 -18 14 -19 15 -15 23 -4 24 rrcurveto
          -3 24 8 29 23 5 13 3 72 -3 13 1 38 3 38 8 33 17 22 11 21 17 13 21 30 52 5 75 -29 53 -23 41 -41 26 -48 5 -61 6 -66 -8 -55 -29 rrcurveto
          -59 -30 -51 -55 -24 -62 -27 -67 -2 -80 17 -71 10 -43 19 -45 32 -31 44 -44 66 -26 62 -2 59 -1 62 19 49 33 rrcurveto
          -217 286 rmoveto
          -9 5 -7 9 -2 9 -4 12 2 13 3 12 4 17 7 16 11 14 8 12 13 9 14 6 25 13 41 7 17 -23 37 -49 -32 -70 -61 -12 -14 -2 -41 -4 -12 6 rrcurveto
          hintmask 10111100
          234 -336 rmoveto
          14 11 49 42 8 16 5 10 -7 10 -9 -5 -3 -2 -1 -5 -1 -4 -5 -11 -32 -28 -10 -8 -23 -16 -25 -16 -27 -8 -9 -2 -9 -2 -9 -2 rrcurveto
          -1 -1 -4 -1 -1 hhcurveto
          -7 2 -3 -7 3 -5 rrcurveto
          -4 3 11 0 5 hhcurveto
          19 54 25 11 15 hvcurveto
          endchar
        </CharString>
        <CharString name="eight">
          25 -55 20 54 137 449 123 hstemhm
          355 183 -145 135 hintmask 11110000
          378 28 rmoveto
          34 9 35 13 27 23 56 44 22 77 -24 67 rrcurveto
          hintmask 11101000
          -14 39 -28 33 -29 30 5 3 6 3 4 5 36 46 19 61 1 58 rrcurveto
          48 -17 55 -35 32 vhcurveto
          -23 21 -31 11 -30 8 -58 14 -62 6 -58 -11 -42 -7 -43 -20 -30 -30 -30 -31 -17 -47 3 -43 3 -49 24 -47 29 -39 7 -8 6 -8 8 -7 -21 -23 -22 -23 -18 -27 rrcurveto
          -18 -26 -15 -31 -6 -31 -9 -50 19 -57 36 -35 15 -16 21 -10 20 -9 35 -15 38 -8 37 -4 rrcurveto
          hintmask 11110000
          45 -6 46 1 43 11 rrcurveto
          -215 678 rmoveto
          -3 1 -4 -1 3 1 3 1 7 3 -1 -1 rrcurveto
          -1 -2 -1 -3 -2 hhcurveto
          79 -141 rmoveto
          1 12 9 12 11 6 rrcurveto
          hintmask 11101000
          23 13 32 -1 25 -8 16 -5 16 -10 9 -13 12 -19 -2 -26 -7 -21 -6 -18 -11 -18 -12 -16 -2 -2 -9 -11 -1 -3 rrcurveto
          hintmask 11110000
          -39 25 -71 57 6 46 rrcurveto
          -7 -405 rmoveto
          -11 3 -11 5 -8 8 -8 9 -6 12 -1 11 -3 20 6 19 6 19 10 26 15 26 19 22 34 -22 34 -25 24 -32 18 -24 12 -40 -21 -21 -21 -20 -60 -4 -28 8 rrcurveto
          152 -204 rmoveto
          8 2 30 8 6 7 5 4 -3 8 -6 1 -5 1 -16 -4 -4 -2 -66 -21 -74 0 -66 16 -15 4 -16 3 -13 9 -8 6 -8 -10 6 -8 8 -11 40 -10 14 -3 rrcurveto
          59 -14 65 -1 59 15 rrcurveto
          endchar
        </CharString>
        <CharString name="equal">
          -83 138 141 68 136 hstem
          26 410 vstem
          366 343 rmoveto
          22 2 25 7 13 18 12 18 -1 27 -88 callsubr
          2 -85 callsubr
          2 -96 callsubr
          -12 -72 3 1 -13 hvcurveto
          -55 callsubr
          -91 callsubr
          7 -80 callsubr
          45 -11 203 0 45 2 rrcurveto
          1 -205 -78 callsubr
          -3 15 -8 17 -14 7 -5 2 -85 callsubr
          2 -85 -84 callsubr
          -19 -19 -2 -18 hhcurveto
          -12 -73 3 1 -12 hvcurveto
          -20 1 -20 -1 -19 -91 callsubr
          8 -80 callsubr
          44 -11 203 0 46 -64 callsubr
        </CharString>
        <CharString name="exclam">
          -272 15 144 563 17 hstemhm
          36 149 -133 177 hintmask 11100000
          246 679 rmoveto
          -1 12 -25 19 -11 7 -23 14 -28 7 -27 1 rrcurveto
          -7 -21 0 -4 -6 hvcurveto
          -4 -3 1 -5 4 -3 rrcurveto
          -2 5 6 0 6 hhcurveto
          20 -1 20 -2 18 -7 13 -5 13 -7 10 -10 8 -6 6 -9 9 -5 7 -3 8 4 -1 8 rrcurveto
          hintmask 11010000
          -109 -451 rmoveto
          21 8 17 18 10 19 22 43 7 50 5 48 4 43 4 43 2 43 rrcurveto
          20 1 21 -5 20 vhcurveto
          -3 13 -7 13 -9 9 -23 20 -33 5 -30 2 -23 1 -41 -6 -9 -21 rrcurveto
          -9 -21 14 -90 -22 vvcurveto
          -57 -1 -57 -2 -57 vhcurveto
          -1 -10 -2 -49 2 -10 1 -9 3 -9 5 -6 16 -20 41 -3 23 8 rrcurveto
          hintmask 11100000
          31 -187 rmoveto
          20 22 3 44 -18 24 -14 19 -27 8 -23 1 -15 2 -18 -3 -13 -10 -26 -21 -8 -50 14 -31 4 -8 7 -7 7 -5 32 -19 51 6 24 28 rrcurveto
          endchar
        </CharString>
        <CharString name="f">
          -105 -18 17 292 94 140 145 31 15 hstemhm
          26 143 78 12 -2 14 hintmask 11111010
          307 699 rmoveto
          9 1 37 7 8 4 rrcurveto
          5 8 -3 13 -9 hhcurveto
          -7 -7 -2 -1 -6 hvcurveto
          -31 -7 -32 -4 -32 2 -17 2 -16 5 -17 2 -8 1 -7 -10 8 -4 8 -4 10 -2 9 -3 31 -8 33 0 31 3 rrcurveto
          -137 -665 rmoveto
          17 3 18 8 9 14 9 14 -1 20 -1 17 -3 60 -12 60 -10 59 21 2 22 4 21 -1 28 -2 28 -7 28 3 19 1 21 7 12 15 15 19 0 38 -15 19 rrcurveto
          -6 8 -10 6 -10 2 -28 5 -131 -21 -29 -1 rrcurveto
          -3 24 -10 23 24 vvcurveto
          1 20 10 22 17 13 rrcurveto
          14 19 28 3 24 hhcurveto
          41 42 -10 10 40 hvcurveto
          10 2 9 6 6 8 21 29 -5 56 -24 28 -8 10 -15 7 -13 -1 -35 -3 -35 -6 -35 2 -37 2 -38 5 -37 -8 -36 -8 -37 -19 -23 -30 -23 -31 -8 -42 -2 -39 rrcurveto
          -4 -134 32 -133 -7 -133 -1 -15 -1 -19 10 -10 21 -21 65 -3 29 5 rrcurveto
          38 -52 rmoveto
          36 10 29 41 -2 39 -2 27 -5 26 -5 25 rrcurveto
          hintmask 11111100
          -2 10 -12 -3 2 -9 rrcurveto
          hintmask 11111010
          5 -26 6 -25 -1 -26 rrcurveto
          -21 -10 -22 -16 -14 vhcurveto
          -8 -7 -12 -5 -11 -1 -7 -1 -41 0 -7 -2 -9 -2 1 -12 8 -1 11 -2 41 -2 11 3 rrcurveto
          endchar
        </CharString>
        <CharString name="five">
          22 -6 184 143 143 143 116 35 17 hstemhm
          53 142 165 164 -7 20 hintmask 11111010
          531 599 rmoveto
          17 60 -17 81 -57 24 -35 15 -40 1 -38 -2 -20 -1 -70 -6 -18 9 -9 5 -4 -16 10 -4 rrcurveto
          -7 20 23 0 22 hhcurveto
          37 38 5 -6 37 hvcurveto
          22 -3 24 -6 17 -15 10 -10 7 -14 4 -13 7 -22 1 -23 -2 -23 rrcurveto
          -4 -4 -20 1 -4 vhcurveto
          1 -10 14 0 2 9 rrcurveto
          -142 -583 rmoveto
          hintmask 11111100
          25 10 24 14 21 18 33 28 20 45 9 42 5 24 3 24 -1 24 -1 39 -8 41 -21 32 -26 40 -37 36 -44 18 -23 9 -26 3 -25 1 -39 2 -39 -6 -37 -13 rrcurveto
          -4 13 -2 15 -1 14 -1 21 0 22 2 22 2 13 3 14 8 10 8 9 11 6 11 1 12 1 13 0 12 -2 28 -3 28 -6 29 -4 23 -3 24 -3 23 5 rrcurveto
          17 5 15 15 6 17 9 28 -7 43 -26 14 -7 4 -8 1 -8 1 -14 1 -13 1 -14 -2 -10 -1 -11 -3 -11 1 rrcurveto
          1 -18 -103 5 -19 hhcurveto
          -24 -25 -1 -6 -24 hvcurveto
          -19 -6 -19 -9 -13 -15 -34 -42 -4 -145 6 -55 3 -31 6 -34 19 -26 8 -11 12 -9 13 -5 23 -10 27 1 25 2 33 2 34 3 33 -6 15 -3 15 -4 12 -9 rrcurveto
          32 -24 7 -53 -25 -29 -26 -32 -63 11 -37 19 -17 9 -16 12 -18 9 -14 7 -18 4 -16 -2 -21 -3 -20 -14 -13 -16 -21 -24 -16 -33 3 -32 2 -23 15 -23 17 -15 rrcurveto
          42 -40 64 -16 58 -2 rrcurveto
          hintmask 11111010
          53 -2 56 5 50 19 rrcurveto
          endchar
        </CharString>
        <CharString name="four">
          16 -46 18 237 108 373 21 hstemhm
          34 201 16 14 74 176 hintmask 11101100
          476 49 rmoveto
          13 6 13 10 8 14 rrcurveto
          10 19 1 23 21 vvcurveto
          24 -6 141 -1 24 vhcurveto
          -1 65 2 66 66 vvcurveto
          20 0 21 -6 19 vhcurveto
          -3 12 -7 12 -9 8 -30 27 -57 -1 -32 -24 -21 -17 -8 -32 -1 -27 -3 -40 2 -40 -3 -40 -1 -33 -5 -33 -4 -34 rrcurveto
          hintmask 11111100
          -5 -32 -8 -1 -6 hvcurveto
          -13 -1 -16 -2 -10 8 -20 17 1 64 1 27 3 49 16 174 -22 44 -4 10 -9 7 -11 4 rrcurveto
          3 -11 -11 1 -11 hhcurveto
          -25 -25 -1 -4 -24 hvcurveto
          -11 -2 -10 -3 -9 -7 -7 -6 -5 -7 -3 -8 rrcurveto
          -11 -35 -3 -153 -37 -3 1 -18 -3 vvcurveto
          1 -48 -9 -50 13 -47 7 -26 16 -26 23 -13 25 -14 31 -3 28 1 rrcurveto
          49 49 6 13 46 hvcurveto
          -23 -3 -106 6 -23 vhcurveto
          3 -10 6 -10 9 -7 13 -10 18 -4 16 -1 rrcurveto
          hintmask 11101100
          32 -2 33 4 29 13 rrcurveto
          35 634 rmoveto
          -22 14 -26 13 -26 1 -23 1 -54 -10 -15 -17 -4 -4 3 -6 6 -1 rrcurveto
          3 13 6 1 3 hvcurveto
          26 7 28 5 26 -6 18 -4 16 -10 15 -11 20 -14 14 22 -21 13 rrcurveto
          -114 -712 rmoveto
          2 -5 -6 -1 -5 hhcurveto
          -15 -15 2 2 -15 hvcurveto
          -13 3 -14 3 -12 7 -20 13 -11 27 -1 23 rrcurveto
          6 0 5 -2 5 vhcurveto
          -1 5 -7 1 -3 -4 rrcurveto
          -3 -5 2 -15 -5 vvcurveto
          3 -20 6 -20 12 -16 8 -10 12 -7 11 -5 28 -12 32 -2 30 1 rrcurveto
          11 4 15 2 -11 hvcurveto
          endchar
        </CharString>
        <CharString name="g">
          -21 168 106 232 100 66 17 hstem
          12 165 137 189 vstem
          334 646 rmoveto
          -10 10 -13 7 -13 7 -42 21 -50 4 -45 -14 -19 -6 -18 -11 -14 -14 -5 -4 5 -8 6 2 7 2 5 4 6 4 39 23 51 5 43 -15 15 -6 14 -8 13 -8 rrcurveto
          -3 4 12 -6 4 hhcurveto
          7 1 3 8 -5 5 rrcurveto
          9 -726 rmoveto
          24 13 20 22 15 23 26 41 16 47 16 46 24 74 11 79 5 78 5 60 -1 62 -13 58 -4 20 -7 20 -14 14 -16 18 -25 12 -25 2 -22 2 -28 -10 -12 -19 rrcurveto
          -11 -16 1 -22 1 -20 -24 32 -30 33 -39 12 -23 7 -26 0 -23 -8 -33 -10 -30 -20 -24 -25 -25 -27 -18 -35 -10 -36 -13 -44 -3 -48 10 -45 9 -46 28 -47 39 -25 rrcurveto
          36 -22 48 -7 42 9 29 7 28 18 22 22 -19 -62 -32 -56 -37 -53 -4 -6 -22 -30 -3 -6 -3 -7 -3 -9 2 -8 1 -8 4 -7 4 -6 31 -50 72 -17 53 26 rrcurveto
          -129 361 rmoveto
          -11 7 -8 11 -5 12 -22 47 6 64 27 44 15 26 30 23 26 -12 12 -6 10 -12 6 -11 rrcurveto
          1 -1 1 -6 -1 vvcurveto
          20 -44 -6 -57 -22 -42 -16 -33 -33 -29 -31 20 rrcurveto
          endchar
        </CharString>
        <CharString name="grave">
          -312 475 259 hstem
          19 195 vstem
          214 522 rmoveto
          -2 17 -35 73 -6 16 -7 19 -6 20 -7 19 -6 15 -7 17 -14 9 -14 10 -21 -1 -17 -6 -19 -6 -20 -13 -9 -18 -9 -19 4 -25 8 -21 15 -43 28 -38 32 -33 rrcurveto
          14 -14 14 -18 20 -5 32 -10 36 21 -4 34 rrcurveto
          endchar
        </CharString>
        <CharString name="greater">
          -155 64 407 hstem
          24 352 vstem
          104 73 rmoveto
          36 25 36 24 38 21 27 14 27 13 27 13 24 12 25 12 19 19 7 6 5 9 1 8 2 12 -6 14 -8 9 -18 21 -27 14 -24 15 -46 28 -46 30 -40 37 rrcurveto
          -11 9 -11 10 -12 9 -8 7 -11 6 -10 1 rrcurveto
          -9 -10 -2 -4 -8 hvcurveto
          -47 -24 -20 -62 37 -38 22 -23 29 -15 28 -14 14 -7 84 -40 14 -7 -34 -18 -34 -18 -36 -15 -23 -10 -24 -6 -21 -12 -9 -5 -9 -7 -4 -9 -4 -9 -1 -12 3 -9 rrcurveto
          4 -11 14 -24 11 -4 12 -5 15 5 10 7 rrcurveto
          endchar
        </CharString>
        <CharString name="h">
          -9 -38 19 553 22 hstem
          343 178 vstem
          222 58 rmoveto
          14 12 4 22 1 18 1 42 -14 42 3 43 3 32 17 36 27 19 11 8 16 6 12 -5 19 -6 9 -37 3 -20 6 -49 -8 -50 -3 -49 rrcurveto
          -14 0 -14 4 -13 vhcurveto
          11 -34 47 -8 35 8 13 2 13 6 10 9 17 14 12 22 6 21 9 31 2 34 -1 32 -4 70 -15 77 -45 54 -16 18 -20 16 -23 7 -24 6 -27 -2 -23 -7 rrcurveto
          -40 -13 -37 -22 -29 -30 rrcurveto
          2 27 28 153 27 vvcurveto
          1 17 -2 17 -6 15 -5 10 -7 8 -9 6 -26 17 -68 -1 -29 -12 -17 -6 -14 -14 -9 -15 -13 -24 -6 -28 -4 -26 -9 -57 -1 -59 1 -57 2 -77 8 -78 20 -74 rrcurveto
          9 -32 9 -33 20 -27 11 -14 17 -12 17 -4 28 -6 35 6 21 19 rrcurveto
          245 459 rmoveto
          -2 7 -8 3 -6 4 -29 17 -35 9 -33 -1 -16 -1 -15 -4 -14 -4 -9 -2 -21 -10 -5 -7 -4 -7 10 -5 7 3 13 6 14 3 14 3 37 8 42 -9 32 -20 rrcurveto
          5 -3 5 -3 6 -1 8 -1 7 7 -3 8 rrcurveto
          -242 -545 rmoveto
          2 1 7 4 2 2 6 7 -4 12 -10 -1 -9 -2 -7 -4 -9 -3 rrcurveto
          -4 -14 -15 -3 -15 hhcurveto
          -24 1 -26 7 -17 16 -2 1 -6 5 -2 1 -5 3 -6 -5 2 -6 8 -20 42 -17 21 -5 27 -5 28 6 26 9 rrcurveto
          endchar
        </CharString>
        <CharString name="hyphen">
          -104 callsubr
        </CharString>
        <CharString name="i">
          -280 650 38 hstemhm
          24 201 -196 168 31 18 hintmask 10110000
          149 513 rmoveto
          62 19 2 83 -55 35 21 -2 23 -11 12 -17 8 -11 5 -14 1 -14 rrcurveto
          -5 -1 -18 2 -5 vhcurveto
          4 -6 10 1 3 8 3 9 -2 30 -4 10 -11 33 -27 34 -33 10 -58 17 -68 -17 -14 -58 -6 -22 2 -25 10 -19 9 -19 15 -14 19 -8 21 -9 25 -2 22 7 rrcurveto
          hintmask 11000000
          15 -469 rmoveto
          12 3 12 7 6 10 7 11 5 12 3 13 9 35 3 36 3 37 4 46 3 47 -5 46 -2 21 -4 21 -11 18 -10 16 -17 13 -19 4 -22 5 -24 -1 -23 -4 rrcurveto
          -18 -2 -20 -4 -12 -14 -9 -9 -3 -14 -2 -13 -11 -77 4 -80 15 -77 6 -31 15 -33 24 -21 21 -19 33 -7 27 5 rrcurveto
          endchar
        </CharString>
        <CharString name="j">
          -196 677 38 hstemhm
          114 169 -136 160 6 20 hintmask 10010000
          hintmask 11010000
          252 548 rmoveto
          47 30 -9 69 -46 30 rrcurveto
          hintmask 10010000
          17 -2 19 -7 12 -13 12 -12 8 -18 1 -17 rrcurveto
          -5 -1 -18 3 -5 vhcurveto
          3 -6 9 1 3 6 6 10 -4 30 -4 12 rrcurveto
          hintmask 11010000
          -11 32 -27 34 -33 10 -29 8 -33 1 -28 -12 -14 -5 -15 -10 -9 -13 -34 -48 23 -72 57 -18 24 -8 31 2 22 14 rrcurveto
          -60 -599 rmoveto
          hintmask 10100000
          34 34 20 47 18 45 29 70 11 78 3 77 2 37 -3 39 -9 37 -5 17 -7 18 -14 11 -22 21 -36 10 -30 -6 -29 -5 -27 -22 7 -28 6 -24 5 -25 2 -25 rrcurveto
          5 -67 -13 -68 -30 -61 -23 -49 -33 -44 -34 -42 -8 -9 -25 -28 -2 -11 -2 -15 21 -20 12 -9 rrcurveto
          hintmask 11010000
          55 -39 75 7 47 49 rrcurveto
          endchar
        </CharString>
        <CharString name="k">
          -49 0 19 -15 15 706 16 hstemhm
          28 164 hintmask 10110000
          227 688 rmoveto
          -21 31 -41 18 -38 4 -11 1 -34 -3 -9 -7 -5 -3 2 -7 5 -1 4 -1 4 0 4 2 35 9 42 -12 28 -22 3 -3 16 -17 4 -3 9 -5 9 10 -6 9 rrcurveto
          -66 -638 rmoveto
          18 11 9 23 3 21 2 15 1 73 -2 16 47 -37 32 -54 50 -32 42 -27 56 21 13 48 3 11 1 13 -3 11 -5 16 -11 13 -12 12 -30 28 -35 21 -27 30 rrcurveto
          23 11 67 73 17 20 rrcurveto
          17 20 49 59 27 vvcurveto
          -1 49 -39 47 -44 -21 -15 -7 -46 -50 -12 -13 -16 -18 -98 -113 -17 -18 5 62 3 62 -2 63 -1 27 -7 71 -19 19 -21 19 -37 4 -25 -12 -10 -5 -7 -6 -4 -11 rrcurveto
          -8 -19 -3 -21 -4 -21 -7 -49 -4 -49 -5 -50 -5 -53 -4 -54 -3 -53 -2 -44 -2 -44 2 -44 rrcurveto
          -21 1 -22 9 -18 vhcurveto
          4 -8 6 -8 7 -6 25 -18 55 -6 26 16 rrcurveto
          hintmask 01110000
          229 -47 rmoveto
          hintmask 10110000
          14 6 13 8 13 10 3 3 13 9 1 4 4 7 -7 8 -7 -2 -4 -1 -11 -9 -4 -3 -13 -10 -15 -11 -16 -3 -18 -2 -18 7 -16 7 -6 3 -31 19 -6 5 rrcurveto
          -10 8 -8 -8 8 -10 9 -14 44 -24 15 -5 17 -6 19 -1 17 5 rrcurveto
          endchar
        </CharString>
        <CharString name="l">
          -228 25 101 579 10 hstem
          26 175 64 19 vstem
          279 479 rmoveto
          1 2 1 9 2 vvcurveto
          4 54 4 57 -19 51 -10 25 -19 25 -25 10 -5 2 -5 2 -5 -1 -5 -2 -2 -6 5 -4 2 -1 3 0 2 -2 21 -10 18 -21 8 -22 17 -47 -1 -52 -4 -50 rrcurveto
          -1 -7 -1 -7 2 -6 1 -8 11 0 2 7 rrcurveto
          -3 -423 rmoveto
          11 9 12 13 4 14 4 15 -3 20 -15 6 -6 2 -8 -1 -7 -2 -13 -5 -25 -5 -9 10 -29 31 10 110 4 42 2 21 4 21 2 22 3 44 3 44 1 44 rrcurveto
          1 37 4 39 -11 35 -5 16 -11 14 -14 8 -22 12 -27 2 -25 -3 -15 -2 -17 -4 -9 -12 -5 -6 -9 -23 -1 -7 rrcurveto
          -17 -113 -12 -113 -114 vvcurveto
          -43 3 -44 12 -41 vhcurveto
          10 -33 16 -34 26 -23 50 -44 80 -1 53 42 rrcurveto
          endchar
        </CharString>
        <CharString name="less">
          -154 64 407 hstem
          14 353 vstem
          320 64 rmoveto
          8 2 7 6 4 7 11 14 9 22 -6 17 -4 10 -10 9 -10 6 -16 8 -17 6 -17 6 -42 16 -40 21 -40 21 12 6 69 32 12 6 28 14 28 14 25 18 rrcurveto
          14 10 13 14 6 16 3 10 1 11 -2 11 -4 27 -15 23 -22 14 rrcurveto
          6 -9 -11 4 -10 hhcurveto
          -11 -1 -12 -5 -9 -7 -17 -13 -16 -15 -16 -14 -49 -42 -57 -31 -54 -36 -26 -16 -26 -30 18 -24 16 -24 28 -14 25 -12 30 -15 29 -13 29 -16 38 -21 37 -25 36 -24 rrcurveto
          9 -7 12 -4 11 -64 callsubr
        </CharString>
        <CharString name="m">
          329 -16 19 438 183 -180 153 80 23 hstemhm
          31 187 441 180 hintmask 11011100
          443 639 rmoveto
          1 10 -9 8 -7 6 -16 14 -22 10 -21 5 -30 8 -35 6 -28 -13 -14 -7 -11 -13 -10 -12 -7 -8 11 -10 8 7 8 7 7 9 10 4 26 12 32 -6 27 -7 rrcurveto
          14 -4 14 -5 13 -7 8 -5 7 -7 7 -7 rrcurveto
          7 -7 10 3 9 vvcurveto
          -232 -567 rmoveto
          16 32 -3 39 -2 36 rrcurveto
          hintmask 10111100
          -3 67 -8 70 17 65 9 36 27 44 30 -22 9 -6 5 -10 5 -9 17 -32 6 -37 3 -36 5 -58 -5 -60 9 -58 2 -18 4 -18 10 -16 28 -45 81 0 27 45 rrcurveto
          10 15 4 19 1 17 rrcurveto
          hintmask 11011100
          6 74 -9 75 10 73 3 23 7 25 15 19 21 26 38 2 20 -27 18 -23 8 -30 3 -29 rrcurveto
          9 -66 -9 -67 -66 vvcurveto
          -20 1 -23 12 -17 vhcurveto
          19 -28 48 -3 31 15 27 12 20 28 9 28 20 60 1 66 -4 62 -6 79 -19 81 -42 66 -3 5 -15 21 -5 4 rrcurveto
          -1 1 -5 1 0 vvcurveto
          7 -14 11 -6 4 vhcurveto
          -16 11 -19 10 -20 2 -30 4 -32 -10 -27 -14 -4 -2 -20 -13 -3 -3 -2 -2 -1 -1 -2 -1 -12 -9 -9 -13 -8 -13 -17 -24 -9 -29 -9 -28 rrcurveto
          hintmask 10111100
          -6 20 -9 19 -11 18 -2 4 -8 11 -4 2 -3 11 -28 21 -9 6 rrcurveto
          12 -20 -24 7 -22 hhcurveto
          -27 -1 -27 -12 -20 -18 -15 -12 -13 -15 -11 -15 -4 38 -6 39 -18 33 -8 15 -14 13 -15 4 -35 10 -43 -18 -19 -31 -12 -22 -5 -25 -4 -24 -7 -51 2 -52 -1 -52 rrcurveto
          -2 -89 -8 -90 10 -89 3 -22 5 -23 12 -18 8 -14 14 -12 15 -7 rrcurveto
          hintmask 11011100
          42 -19 56 13 21 41 rrcurveto
          556 -79 rmoveto
          22 9 56 45 13 19 6 9 -5 14 -10 -4 -3 -2 -10 -11 -2 -3 -27 -26 -31 -29 -37 -7 -7 -2 -32 -4 -7 2 rrcurveto
          -4 -3 -3 -4 hvcurveto
          -2 -13 18 0 13 1 rrcurveto
          18 18 3 6 16 hvcurveto
          endchar
        </CharString>
        <CharString name="minus">
          -104 callsubr
        </CharString>
        <CharString name="multiply">
          -152 114 332 hstem
          25 343 vstem
          316 118 rmoveto
          18 8 13 17 10 17 8 14 6 19 -7 14 -7 14 -47 44 -11 11 12 13 13 13 13 13 13 15 15 17 3 20 4 30 -27 37 -29 9 -18 6 -21 -5 -15 -10 rrcurveto
          -25 -15 -19 -23 -21 -21 -5 5 -29 29 -5 4 -13 12 -14 12 -18 6 -11 3 -13 1 -12 -4 -18 -6 -15 -17 -10 -17 -7 -11 -4 -15 3 -13 3 -15 9 -12 9 -12 rrcurveto
          15 -17 17 -16 16 -16 -12 -12 -49 -44 -6 -16 -5 -14 6 -18 8 -13 10 -18 17 -19 20 -7 12 -3 14 2 12 5 15 6 48 42 12 11 15 -14 16 -15 17 -13 rrcurveto
          11 -10 14 -9 15 -3 10 -2 11 2 10 -70 callsubr
        </CharString>
        <CharString name="n">
          71 511 16 23 18 hstemhm
          46 186 204 165 hintmask 10110000
          267 526 rmoveto
          hintmask 11110000
          11 8 13 5 13 3 6 2 30 4 6 2 11 4 -5 17 -11 -3 -9 -2 -43 -10 -8 -4 -53 callsubr
          -14 -6 -12 -11 -13 -8 rrcurveto
          -2 -1 7 4 -2 hvcurveto
          -8 24 -14 25 -21 13 -16 9 -17 5 -18 3 -5 1 -26 4 -6 -1 rrcurveto
          -8 -3 -11 -5 6 hvcurveto
          6 -4 27 -2 7 -1 19 -4 20 -7 13 -14 9 -9 8 -11 5 -12 2 -4 7 -18 3 -3 9 -13 18 15 13 8 rrcurveto
          -60 -473 rmoveto
          7 1 6 5 3 5 rrcurveto
          6 8 3 10 9 vvcurveto
          5 55 -18 54 1 54 rrcurveto
          35 11 39 24 26 vhcurveto
          26 28 46 16 37 -9 13 -4 12 -10 9 -10 19 -25 12 -32 4 -31 8 -51 -10 -53 -1 -52 -1 -13 0 -15 8 -11 16 -25 51 -5 29 9 15 4 14 8 9 12 rrcurveto
          13 14 6 19 4 19 8 37 1 39 -2 38 -2 51 -11 53 -24 45 -15 29 -18 28 -25 20 rrcurveto
          22 -27 -37 10 -34 hhcurveto
          -38 -1 -38 -8 -37 -12 -36 -12 -35 -22 -25 -30 2 27 2 28 -9 25 -17 46 -62 15 -48 -12 -15 -4 -17 -7 -9 -13 rrcurveto
          -5 -8 -2 -10 -9 vvcurveto
          -18 21 -94 1 -17 vhcurveto
          3 -20 2 -111 -20 vvcurveto
          -17 -3 -93 2 -17 vhcurveto
          2 -14 6 -14 11 -9 12 -10 17 -5 16 -1 33 -3 33 5 32 9 rrcurveto
          endchar
        </CharString>
        <CharString name="nine">
          69 8 -21 263 111 234 108 47 20 hstem
          25 175 173 174 vstem
          600 591 rmoveto
          2 28 -39 59 -21 19 -30 27 -34 24 -38 11 -20 7 -68 8 -20 -7 -8 -2 4 -10 8 -2 rrcurveto
          -1 5 31 -2 5 hhcurveto
          26 -3 25 -4 23 -11 31 -14 29 -20 23 -24 15 -16 12 -18 8 -20 6 -13 1 -16 9 -11 rrcurveto
          6 -8 9 9 10 vvcurveto
          -339 -604 rmoveto
          15 4 14 8 13 8 37 24 33 32 30 33 41 45 35 51 24 55 31 71 14 79 -1 77 -1 43 -6 44 -17 39 -11 24 -15 22 -20 16 -25 19 -32 9 -30 6 rrcurveto
          -48 9 -49 -1 -49 -5 -38 -4 -39 -7 -34 -18 -35 -19 -30 -31 -17 -36 -25 -56 -7 -64 6 -60 3 -25 5 -25 11 -22 9 -16 13 -15 15 -11 30 -24 40 -14 39 -2 rrcurveto
          35 -2 35 5 34 9 -13 -38 -101 -86 -31 -25 rrcurveto
          -3 -3 -3 -5 -5 vvcurveto
          -1 -27 45 -48 21 -17 15 -12 19 -13 19 4 rrcurveto
          -5 377 rmoveto
          -15 4 -14 12 -8 13 -13 21 -5 26 -1 25 -1 23 2 25 10 22 28 64 85 21 33 -61 18 -33 2 -42 -4 -39 -2 -23 -12 -45 -22 -9 -12 -5 -14 -1 -14 -1 rrcurveto
          -14 -14 0 3 -13 hvcurveto
          endchar
        </CharString>
        <CharString name="nonbreakingspace">
          -245 endchar
        </CharString>
        <CharString name="numbersign">
          103 191 95 -95 98 -92 95 77 98 -95 97 hstemhm
          20 602 hintmask 01010100
          383 28 rmoveto
          21 9 13 22 10 21 rrcurveto
          hintmask 10010100
          16 35 7 39 10 37 29 1 28 -1 28 6 16 3 18 5 10 13 11 16 -6 25 -15 13 -11 9 -15 4 -14 1 -17 2 -17 -1 -16 1 9 27 9 27 10 27 rrcurveto
          28 1 28 1 25 11 7 3 7 5 4 6 12 16 -7 24 -15 13 -12 11 -18 3 -17 1 12 22 46 90 2 25 1 13 -7 15 -9 10 -27 28 -45 6 -28 -26 rrcurveto
          -20 -17 -8 -26 -11 -24 -18 -37 -16 -38 -16 -38 -25 1 -26 0 -25 -1 11 23 47 89 2 25 1 14 -7 15 -9 10 -26 28 -45 5 -29 -25 -19 -17 -9 -27 -11 -23 rrcurveto
          hintmask 00101100
          -18 -38 -17 -38 -15 -39 -35 1 -36 1 -33 -9 -12 -3 -11 -4 -9 -8 -15 -14 1 -23 14 -14 10 -10 15 -5 15 -3 18 -4 20 -1 19 -1 -10 -27 -10 -26 -10 -27 rrcurveto
          -32 -1 -60 -5 -12 -30 -7 -19 13 -20 18 -9 15 -7 16 -2 16 -2 -8 -24 -26 -79 7 -25 8 -27 40 -15 28 1 rrcurveto
          12 11 4 6 9 hvcurveto
          16 13 11 19 8 18 rrcurveto
          hintmask 01010100
          14 33 8 36 9 35 rrcurveto
          24 24 -1 24 hhcurveto
          -8 -24 -25 -78 7 -24 3 -11 10 -9 10 -6 21 -14 30 -7 23 10 rrcurveto
          -115 262 rmoveto
          9 26 9 27 10 26 rrcurveto
          27 26 -1 27 hhcurveto
          -10 -26 -9 -26 -10 -26 rrcurveto
          -26 -26 -1 1 -27 hvcurveto
          endchar
        </CharString>
        <CharString name="o">
          8 14 23 37 73 83 73 224 87 33 19 hstemhm
          15 168 9 51 202 94 hintmask 11111101
          192 590 rmoveto
          4 7 4 8 5 6 8 9 11 6 10 5 29 15 33 2 32 -1 rrcurveto
          5 29 -4 5 hhcurveto
          9 -1 1 13 -9 2 -6 1 -6 2 -6 3 -18 6 -58 -5 -18 -6 -17 -5 -16 -8 -14 -11 -12 -10 -10 -14 -6 -14 -3 -7 9 -4 5 5 rrcurveto
          219 -493 rmoveto
          40 19 33 31 20 40 rrcurveto
          hintmask 11111111
          31 62 10 75 -9 69 -5 38 -12 39 -20 33 -18 31 -26 28 -31 19 -42 26 -55 13 -48 -9 -27 -5 -28 -15 -16 -22 -49 -13 -51 -24 -33 -39 -18 -20 -13 -24 -10 -24 rrcurveto
          -25 -68 -1 -83 28 -67 18 -42 31 -38 39 -23 34 -20 41 -7 39 -3 rrcurveto
          hintmask 11111101
          58 -4 62 2 53 25 rrcurveto
          -107 219 rmoveto
          -25 14 -19 25 -10 27 rrcurveto
          hintmask 11111111
          -9 25 0 30 7 25 6 19 10 18 15 12 41 33 57 -21 31 -41 rrcurveto
          hintmask 11111101
          22 -29 14 -37 1 -36 rrcurveto
          -9 0 -23 -6 -6 vhcurveto
          -18 -19 -25 -16 -26 -4 -22 -4 -25 6 -19 11 rrcurveto
          -4 -169 rmoveto
          -23 3 -22 11 -17 16 -24 23 -16 34 -7 34 -11 45 1 50 11 45 -3 -41 7 -45 24 -34 49 -71 101 -5 67 54 -14 -64 -57 -64 -66 9 rrcurveto
          -62 -133 rmoveto
          12 2 9 13 -10 8 rrcurveto
          4 -6 -9 -4 -8 hhcurveto
          -30 -1 -30 8 -29 8 -21 6 -21 13 -14 16 -4 3 -3 3 -3 3 -8 7 -7 -13 6 -8 19 -26 29 -18 30 -11 17 -7 63 -9 18 3 rrcurveto
          endchar
        </CharString>
        <CharString name="one">
          -160 575 122 42 18 hstem
          114 185 39 19 vstem
          356 567 rmoveto
          2 1 10 2 vvcurveto
          1 36 2 37 -5 36 -3 18 -8 19 -14 11 -16 13 -22 5 -20 1 -23 3 -70 0 -20 -12 -9 -6 13 -8 11 1 31 6 32 1 32 -3 17 -1 19 -4 13 -10 rrcurveto
          29 -22 -7 -85 -2 -36 rrcurveto
          -2 1 -10 1 -3 vhcurveto
          1 -9 13 1 2 9 rrcurveto
          -79 -522 rmoveto
          9 4 8 7 5 8 rrcurveto
          5 10 2 11 11 vvcurveto
          1 17 -7 101 18 vvcurveto
          -1 31 0 184 31 vvcurveto
          1 55 4 55 -7 54 -3 16 -3 18 -13 11 -9 9 -15 0 -13 1 -29 2 -130 -21 -28 -6 -14 -3 -16 -3 -10 -11 -11 -13 0 -30 7 -16 6 -12 14 -9 14 -2 rrcurveto
          -3 14 73 5 15 hhcurveto
          -2 -8 -4 -45 -1 -8 -11 -96 -11 -96 -3 -96 -2 -54 -5 -108 48 -24 26 -13 70 8 26 10 rrcurveto
          endchar
        </CharString>
        <CharString name="p">
          20 176 119 245 111 48 28 hstemhm
          27 187 -164 148 194 160 hintmask 00110100
          281 675 rmoveto
          20 10 22 5 22 5 24 5 25 6 24 -3 14 -2 14 -6 11 -9 rrcurveto
          -2 3 10 -9 4 hhcurveto
          7 -1 4 10 -5 5 -8 10 -33 20 -12 3 -42 12 -48 -8 -41 -15 -16 -5 -17 -7 -9 -14 -4 -6 4 -10 8 -1 rrcurveto
          6 7 3 4 6 hvcurveto
          hintmask 11101100
          -80 -720 rmoveto
          15 7 16 11 6 16 6 14 -2 16 -2 14 -4 24 -34 137 -4 23 22 -16 26 -10 26 -6 30 -8 31 -3 31 2 22 1 23 5 20 10 27 13 22 23 19 24 rrcurveto
          21 28 18 33 9 34 14 57 -7 63 -19 56 -15 43 -32 42 -40 22 rrcurveto
          hintmask 01110100
          -56 31 -67 -3 -53 -38 -24 -17 -21 -23 -17 -25 rrcurveto
          25 -2 26 -5 25 vhcurveto
          -4 16 -4 18 -12 11 -21 19 -52 -8 -26 -12 -10 -4 -9 -6 -7 -8 -49 -59 25 -195 12 -76 rrcurveto
          11 -66 -5 -69 -67 vvcurveto
          -33 1 -34 6 -32 vhcurveto
          4 -18 5 -18 10 -15 rrcurveto
          hintmask 11101100
          25 -35 61 -4 39 19 rrcurveto
          hintmask 11110100
          72 343 rmoveto
          -62 14 -8 78 22 60 11 30 23 27 27 17 rrcurveto
          9 15 18 7 18 hhcurveto
          8 9 -2 -5 7 hvcurveto
          27 -17 7 -64 -3 -33 -2 -29 -9 -30 -17 -24 -13 -17 -17 -14 -20 -6 -13 -4 -15 -1 -13 -70 callsubr
        </CharString>
        <CharString name="parenleft">
          8 -21 hstem
          32 138 vstem
          289 -13 rmoveto
          18 3 13 24 -7 16 -3 7 -7 5 -7 4 -31 17 -31 23 -19 31 -21 33 -10 40 -6 39 -9 63 -3 65 4 64 3 53 9 55 27 45 22 36 37 29 39 15 rrcurveto
          14 5 16 5 7 12 7 13 -1 20 -12 8 -21 17 -53 -22 -25 -12 -51 -24 -42 -40 -36 -43 -25 -29 -19 -36 -13 -36 -13 -37 -5 -41 -3 -39 -4 -53 1 -55 13 -51 rrcurveto
          12 -45 20 -43 27 -37 17 -24 22 -20 23 -17 28 -20 32 -16 34 -5 11 -2 11 -2 10 -64 callsubr
        </CharString>
        <CharString name="parenright">
          5 -21 hstem
          166 137 vstem
          96 8 rmoveto
          51 23 42 41 37 42 25 30 18 35 13 37 14 37 4 40 3 40 4 53 -1 54 -13 52 -11 45 -21 43 -27 37 -17 23 -22 20 -23 17 -28 21 -32 16 -34 5 rrcurveto
          -10 1 -11 3 -11 -2 -18 -4 -12 -23 6 -16 4 -7 7 -5 6 -4 32 -18 30 -23 19 -30 19 -30 10 -35 6 -35 12 -66 3 -68 -4 -67 -4 -54 -8 -57 -28 -46 rrcurveto
          -22 -36 -37 -28 -39 -15 -13 -5 -17 -5 -7 -13 -7 -12 1 -20 12 -9 22 -16 53 22 24 12 rrcurveto
          endchar
        </CharString>
        <CharString name="percent">
          272 -4 -21 37 102 205 101 21 22 285 15 hstemhm
          18 121 121 79 128 121 121 79 hintmask 1101101010000000
          hintmask 1110111110000000
          359 683 rmoveto
          -37 47 -54 29 -60 5 -15 1 -16 1 -15 -3 -7 -1 -4 -7 5 -4 rrcurveto
          -4 5 7 1 7 hhcurveto
          18 -2 19 0 18 -5 33 -9 32 -15 25 -22 9 -8 7 -9 8 -8 10 -12 15 13 -10 12 rrcurveto
          -90 -708 rmoveto
          57 9 39 119 22 53 35 84 39 83 44 79 19 33 99 150 11 36 3 13 -1 14 -5 11 -19 42 -57 16 -36 -25 -25 -17 -13 -30 -15 -25 -73 -116 -64 -121 -62 -122 rrcurveto
          -20 -39 -70 -135 3 -44 2 -32 37 -29 32 -6 rrcurveto
          -1 6 6 0 6 hhcurveto
          44 424 -61 callsubr
          38 -22 40 -33 22 -58 callsubr
          -37 -11 -48 -46 vvcurveto
          -38 9 -40 21 -31 vhcurveto
          16 -25 26 -20 27 -11 73 -29 91 27 -72 callsubr
          16 6 14 11 15 14 7 19 8 29 -14 13 -17 26 -34 -11 -63 -68 callsubr
          -15 46 40 3 hvcurveto
          654 -132 rmoveto
          -1 3 -7 11 -2 3 -25 31 -36 27 -39 10 -16 4 -16 1 -16 -1 rrcurveto
          -6 -22 -4 -2 -5 hvcurveto
          -9 -5 4 -13 10 1 rrcurveto
          1 6 32 0 6 hhcurveto
          27 -4 25 -12 22 -15 18 -12 14 -17 12 -18 8 -13 18 8 -2 16 rrcurveto
          -31 -282 -61 callsubr
          39 -22 39 -33 23 -58 callsubr
          -38 -11 -48 -45 vvcurveto
          hintmask 0001000010000000
          -38 9 -40 21 -32 vhcurveto
          16 -25 26 -19 27 -11 73 -29 91 26 -72 callsubr
          17 6 14 11 15 14 6 19 8 29 -14 13 -16 26 -35 -11 -62 -68 callsubr
          -1 -15 47 3 39 rrcurveto
          endchar
        </CharString>
        <CharString name="period">
          -335 -1 177 hstem
          20 171 vstem
          167 29 -52 callsubr
          23 -56 callsubr
          37 -61 -26 -89 callsubr
          -35 11 -30 4 -14 8 -13 12 -9 34 -24 56 7 28 33 rrcurveto
          endchar
        </CharString>
        <CharString name="plus">
          -90 229 114 -110 104 hstemhm
          142 153 -147 140 hintmask 10100000
          hintmask 10010000
          272 98 rmoveto
          14 11 6 21 1 18 3 28 -4 28 -4 29 22 -1 81 -8 20 9 11 6 8 12 5 12 5 15 -71 callsubr
          hintmask 10100000
          -99 callsubr
          hintmask 01100000
          -7 -36 5 -39 -81 callsubr
          -90 callsubr
          -10 rrcurveto
          hintmask 10010000
          7 -8 10 -5 11 -3 26 -7 33 3 21 18 rrcurveto
          endchar
        </CharString>
        <CharString name="plusminus">
          -74 -2 141 220 114 -110 104 hstemhm
          151 153 -147 140 hintmask 11010000
          hintmask 11001000
          281 227 rmoveto
          14 12 6 20 1 19 3 28 -4 28 -4 29 22 -2 81 -7 20 9 11 6 8 12 5 11 5 16 -71 callsubr
          hintmask 11010000
          -99 callsubr
          hintmask 10110000
          -7 -37 5 -38 -81 callsubr
          rrcurveto
          hintmask 10101000
          -90 callsubr
          -11 7 -7 10 -5 11 -3 rrcurveto
          hintmask 11001000
          26 -7 33 3 21 17 rrcurveto
          hintmask 11010000
          86 -229 -78 callsubr
          -4 15 -7 17 -14 6 -5 3 -85 callsubr
          2 -85 -84 callsubr
          -19 -19 -2 -18 hhcurveto
          -13 -72 3 1 -12 hvcurveto
          -20 -65 callsubr
          -91 callsubr
          8 -13 14 -8 14 -3 44 -11 203 0 46 -64 callsubr
        </CharString>
        <CharString name="q">
          -3 147 103 256 115 48 25 hstemhm
          12 157 126 191 -168 186 hintmask 00111000
          112 630 rmoveto
          2 2 9 6 2 1 33 24 44 11 40 -5 20 -3 21 -6 20 -7 3 -1 14 -6 3 -1 10 -2 8 9 -4 9 -4 8 -21 8 -8 3 -31 11 -34 6 -33 -3 rrcurveto
          -31 -3 -60 -23 -13 -29 -3 -6 8 -7 5 4 rrcurveto
          409 -678 rmoveto
          7 19 -4 23 -5 20 -16 73 -15 73 -2 75 -1 70 12 70 5 70 rrcurveto
          hintmask 11110100
          2 29 4 29 -1 29 -1 21 -3 22 -12 18 -18 25 -53 8 -30 -9 -10 -3 -9 -7 -6 -9 -9 -12 -5 -15 -6 -14 -30 31 -84 32 -42 -10 -41 -10 -37 -27 -28 -32 rrcurveto
          -34 -37 -25 -48 -8 -49 -10 -58 9 -65 29 -51 11 -18 13 -17 16 -13 rrcurveto
          hintmask 10111000
          37 -29 46 -13 46 4 31 3 32 12 26 18 -7 -69 -8 -72 21 -66 7 -21 10 -23 17 -15 12 -11 16 -7 16 -3 rrcurveto
          hintmask 00111000
          50 -9 68 21 17 47 rrcurveto
          hintmask 11110100
          -332 311 rmoveto
          -11 11 -6 17 -3 16 -4 26 3 27 5 26 8 38 14 42 29 26 27 24 42 -8 16 -32 9 -19 2 -22 -2 -20 -3 -31 -4 -31 -9 -30 -7 -20 -10 -20 -15 -14 rrcurveto
          -23 -22 -36 -5 -22 21 rrcurveto
          endchar
        </CharString>
        <CharString name="question">
          -50 -9 149 441 96 52 16 hstemhm
          23 100 -37 179 -153 159 11 178 hintmask 11101000
          480 648 rmoveto
          -4 12 -30 23 -10 7 -39 27 -45 22 -47 6 -16 2 -16 0 -16 -1 rrcurveto
          -1 -2 -6 -1 -1 hhcurveto
          -7 -3 -9 -3 6 hvcurveto
          -3 11 11 0 11 hhcurveto
          54 -3 53 -26 44 -32 13 -9 9 -12 12 -9 9 -6 12 6 -3 10 rrcurveto
          -230 -457 rmoveto
          6 1 6 3 4 4 11 12 -11 41 -1 17 -1 2 0 6 2 2 13 8 15 4 14 7 rrcurveto
          hintmask 11110010
          26 12 26 15 22 19 38 33 32 48 8 50 6 35 -11 39 -18 32 -12 21 -17 21 -20 14 -47 31 -60 15 -56 -6 -43 -4 -43 -13 -37 -22 -24 -14 -20 -20 -15 -22 rrcurveto
          -9 -15 -8 -16 -3 -16 -4 -25 6 -26 8 -24 5 -15 1 -18 11 -12 rrcurveto
          -6 5 8 -3 8 hhcurveto
          20 -2 22 9 14 15 7 8 4 12 -1 10 -2 19 -10 17 -2 19 -3 22 10 29 20 11 29 15 54 -15 25 -22 14 -13 7 -22 3 -19 3 -30 -6 -32 -15 -25 rrcurveto
          hintmask 11101000
          -16 -25 -26 -20 -27 -10 -25 -10 -28 1 -26 -7 -8 -2 -8 -4 -5 -5 -17 -18 12 -51 6 -24 3 -12 3 -11 5 -11 3 -9 7 -9 8 -4 24 -12 75 15 26 7 rrcurveto
          hintmask 11100100
          34 -138 rmoveto
          3 15 0 18 -7 14 -5 10 -8 9 -10 6 -30 19 -60 2 -28 -21 -23 -17 -10 -31 9 -30 5 -17 17 -20 16 -8 53 -26 65 20 13 57 rrcurveto
          endchar
        </CharString>
        <CharString name="quotedbl">
          -107 callsubr
        </CharString>
        <CharString name="quotedblleft">
          -107 callsubr
        </CharString>
        <CharString name="quotedblright">
          -107 callsubr
        </CharString>
        <CharString name="quoteleft">
          -105 callsubr
        </CharString>
        <CharString name="quoteright">
          -105 callsubr
        </CharString>
        <CharString name="quotesingle">
          -105 callsubr
        </CharString>
        <CharString name="r">
          -30 273 32 95 227 hstem
          48 187 75 18 vstem
          228 76 rmoveto
          16 28 0 36 -2 32 -2 43 -4 43 -1 44 -1 44 11 49 28 34 15 18 16 18 19 15 9 7 14 8 11 -5 13 -6 10 -44 7 -13 4 -9 7 -8 9 -4 rrcurveto
          22 -9 31 0 19 15 33 27 -5 75 -13 41 -7 20 -10 20 -15 14 -13 11 -17 6 -16 1 -26 3 -27 -7 -23 -13 -56 -31 -47 -52 -29 -58 -2 32 2 31 -3 32 rrcurveto
          -2 24 -6 28 -18 17 rrcurveto
          14 -14 -22 5 -20 hhcurveto
          -46 -54 -21 -45 -3 hvcurveto
          -2 -41 19 -39 3 -41 rrcurveto
          9 -97 -1 -98 -98 vvcurveto
          -20 -2 -21 2 -20 vhcurveto
          1 -14 3 -16 8 -12 9 -12 15 -9 14 -6 44 -22 61 14 25 42 rrcurveto
          211 201 rmoveto
          7 3 23 12 5 5 7 7 0 13 -10 2 -11 2 -10 -9 -10 -4 -20 -7 -41 5 -17 13 -8 8 -7 10 -6 10 -3 4 -9 21 -1 5 -3 12 -16 -4 1 -13 rrcurveto
          2 -12 19 -41 7 -10 21 -29 46 -14 34 11 rrcurveto
          endchar
        </CharString>
        <CharString name="s">
          -78 10 -21 35 168 244 163 23 23 hstemhm
          20 184 -100 118 75 145 hintmask 11011010
          hintmask 11010110
          124 616 rmoveto
          1 8 44 5 9 hhcurveto
          6 21 1 3 5 hvcurveto
          12 7 -9 14 -13 -2 -19 -2 -66 -4 -15 -12 -5 -4 0 -9 7 -1 5 -1 5 2 5 2 rrcurveto
          209 -559 rmoveto
          33 15 33 23 20 31 8 13 5 15 4 15 6 29 3 31 -7 29 -5 21 -12 21 -15 14 rrcurveto
          hintmask 11111010
          -25 24 -33 13 -32 11 -26 8 -26 7 -26 5 -12 3 -13 5 -6 10 -14 27 31 24 30 -4 35 -4 36 -2 35 -5 15 -2 15 -4 14 4 12 4 9 11 6 11 rrcurveto
          17 30 5 59 -24 25 -9 9 -12 5 -12 3 rrcurveto
          6 -21 -21 2 -21 hhcurveto
          -21 -110 -5 -3 -21 hvcurveto
          -23 -3 -24 -5 -22 -8 -23 -10 -22 -14 -14 -20 -38 -52 -11 -91 43 -47 10 -11 12 -8 14 -5 18 -8 20 -2 19 -2 40 -5 42 0 38 -12 13 -4 15 -6 6 -12 rrcurveto
          5 -9 -2 -12 -4 -9 -5 -13 -9 -11 -11 -7 -14 -9 -16 -4 -16 -3 -22 -4 -23 -1 -22 1 -32 3 -35 11 -29 -12 -17 -7 -12 -20 -5 -18 -9 -37 15 -51 34 -16 rrcurveto
          28 -13 32 0 30 -1 rrcurveto
          hintmask 11010110
          60 -2 63 10 55 25 rrcurveto
          hintmask 11011010
          -55 -68 rmoveto
          31 2 33 6 28 15 21 11 21 16 14 20 rrcurveto
          6 5 -2 11 -8 hhcurveto
          -7 -10 -14 -4 -5 hvcurveto
          -9 -8 -10 -8 -11 -6 -26 -13 -29 -7 -29 -7 -5 -1 -5 0 -4 -3 -6 -6 4 -11 9 1 rrcurveto
          endchar
        </CharString>
        <CharString name="semicolon">
          -322 -6 141 -116 -21 252 178 hstemhm
          26 171 -162 158 hintmask 10101000
          hintmask 10110000
          173 -63 callsubr
          9 66 -74 -95 callsubr
          hintmask 10101000
          -68 -388 rmoveto
          31 22 28 31 15 35 12 26 6 30 -4 27 -4 20 -9 21 -16 13 -23 19 -37 3 -27 -10 rrcurveto
          hintmask 01101000
          -39 -15 -12 -46 15 -39 12 -33 40 -10 33 11 -6 -26 -17 -24 -21 -18 rrcurveto
          hintmask 10101000
          -24 -57 callsubr
        </CharString>
        <CharString name="seven">
          -98 -68 24 59 -21 528 193 36 15 hstem
          28 12 vstem
          177 753 rmoveto
          17 2 64 6 14 8 8 4 -1 11 -8 3 -4 1 -16 -3 -4 -1 -41 -8 -41 -6 -40 -2 rrcurveto
          -1 -5 -27 -1 -5 hhcurveto
          -8 -1 1 -12 8 -2 29 -4 30 2 29 4 rrcurveto
          104 -719 rmoveto
          8 16 4 19 3 18 7 48 6 48 9 47 11 65 16 65 20 63 8 25 49 142 6 26 1 1 -1 5 -62 callsubr
          3 0 4 1 4 1 17 0 17 -4 17 rrcurveto
          -3 10 -6 10 -8 6 -28 22 -106 -17 -35 -1 -42 -1 -41 -1 -42 -4 -22 -2 -24 -2 -19 -12 -9 -6 -6 -10 -5 -9 -15 -35 -2 -65 27 -27 12 -13 19 -5 18 -1 rrcurveto
          58 -4 59 13 56 15 -5 -7 -21 -39 -4 -7 -58 -110 -45 -117 -32 -120 -4 -15 -3 -16 -2 -17 -2 -19 5 -22 11 -17 9 -15 16 -11 16 -7 47 -20 65 0 23 47 rrcurveto
          -80 -102 rmoveto
          15 2 4 18 -14 3 rrcurveto
          1 -6 -33 0 -7 hhcurveto
          -19 1 -19 7 -18 8 -23 12 -20 22 -12 23 -4 8 -2 9 -3 8 -3 6 -8 -1 -1 -6 -1 -8 3 -8 3 -8 14 -33 27 -31 33 -15 29 -13 33 -7 32 -64 callsubr
        </CharString>
        <CharString name="six">
          37 -21 14 42 106 232 115 hstem
          29 172 174 176 vstem
          328 38 rmoveto
          35 4 36 5 32 15 43 19 35 36 17 43 rrcurveto
          17 41 8 46 44 vvcurveto
          1 43 -4 47 -24 35 -26 38 -48 24 -46 7 -40 7 -43 -6 -40 -11 13 38 100 86 31 25 10 8 -5 18 -6 11 -16 31 -49 55 -34 4 -29 2 -58 -46 -21 -20 rrcurveto
          -56 -53 -51 -61 -33 -70 -30 -64 -15 -72 -3 -71 -3 -53 4 -57 22 -49 10 -23 14 -21 19 -16 24 -20 33 -10 31 -5 48 -9 49 1 48 4 rrcurveto
          -74 107 rmoveto
          -11 4 -10 8 -8 9 -11 15 -6 19 -4 19 -6 37 1 40 12 35 4 14 6 15 13 7 16 10 50 0 19 -4 19 -5 16 -17 8 -18 15 -32 1 -38 -6 -34 rrcurveto
          -10 -57 -53 -45 -55 18 rrcurveto
          114 -166 rmoveto
          19 1 18 3 18 5 41 12 43 20 24 35 4 6 18 29 3 7 2 6 -7 6 -6 -3 -8 -5 -20 -35 -6 -7 -8 -9 -9 -6 -10 -6 -19 -11 -20 -9 -20 -7 rrcurveto
          -23 -7 -23 -3 -23 -8 -10 -3 11 -12 11 1 rrcurveto
          endchar
        </CharString>
        <CharString name="slash">
          -176 9 694 hstem
          17 345 vstem
          128 13 rmoveto
          15 5 12 13 7 13 11 20 7 23 6 22 13 47 11 47 14 46 29 98 36 96 42 93 10 22 11 23 6 24 4 17 2 19 -7 17 -19 41 -62 18 -38 -25 rrcurveto
          -10 -6 -9 -10 -6 -10 -27 -40 -18 -47 -14 -46 rrcurveto
          -2 -1 -2 -3 vvcurveto
          -36 -86 -29 -90 -28 -89 -13 -41 -13 -41 -10 -42 -4 -19 -4 -19 1 -19 rrcurveto
          -12 4 -13 7 -10 vhcurveto
          20 -27 49 -17 31 12 rrcurveto
          endchar
        </CharString>
        <CharString name="softhyphen">
          -545 endchar
        </CharString>
        <CharString name="space">
          -245 endchar
        </CharString>
        <CharString name="sterling">
          22 -14 140 -128 71 -62 -21 176 13 90 90 -84 73 231 89 hstemhm
          23 79 -5 175 -99 124 80 91 38 21 hintmask 0101101101110000
          527 537 rmoveto
          2 14 -16 46 -6 14 -16 33 -26 31 -33 18 -24 13 -28 8 -28 -1 rrcurveto
          -6 -5 -6 -4 4 hvcurveto
          3 -3 10 -2 4 -1 34 -4 33 -18 25 -24 18 -17 14 -22 9 -24 5 -14 3 -16 3 -15 2 -13 17 -6 2 13 rrcurveto
          hintmask 0011101101110000
          -38 -534 rmoveto
          hintmask 1001101101110000
          26 13 26 26 4 30 3 27 -14 34 -26 7 -12 4 -14 -5 -12 -3 -35 -11 -39 -3 -36 4 -22 3 -21 5 -20 7 9 40 -2 43 -7 41 34 -1 80 -8 21 27 rrcurveto
          10 14 -3 29 -10 14 -4 6 -6 4 -7 1 rrcurveto
          hintmask 0101101010110000
          -17 3 -92 0 -16 1 rrcurveto
          -3 1 5 3 -1 hvcurveto
          -10 57 -19 113 47 34 14 9 21 2 15 -7 28 -13 0 -47 -7 -30 -3 -13 -5 -14 2 -13 2 -11 10 -9 10 -5 30 -12 31 18 10 30 13 37 -3 43 -13 37 rrcurveto
          -17 48 -49 40 -51 7 -50 7 -54 -9 -45 -23 -38 -19 -35 -36 -11 -41 rrcurveto
          hintmask 0101011010110000
          -10 -33 -4 -36 4 -34 4 -33 7 -33 13 -30 rrcurveto
          -18 -24 2 -13 -13 hvcurveto
          -18 -17 3 -31 23 -9 rrcurveto
          hintmask 0101011101110000
          -5 12 50 0 12 hhcurveto
          19 -32 3 -40 3 -37 rrcurveto
          1 -1 0 0 hvcurveto
          -34 19 -67 -2 -30 -24 -9 -7 -7 -10 -3 -11 -5 -18 2 -22 7 -17 8 -17 12 -15 14 -11 30 -26 46 -10 39 7 20 4 20 9 16 13 rrcurveto
          hintmask 0011101101110000
          16 -9 18 -5 18 -4 42 -12 44 -9 43 1 rrcurveto
          26 26 6 11 24 hvcurveto
          hintmask 0101101101110000
          -383 73 rmoveto
          -10 10 12 13 14 3 10 2 30 -8 9 -4 -4 -5 -4 -5 -5 -3 -14 -11 -25 -4 -13 12 rrcurveto
          endchar
        </CharString>
        <CharString name="t">
          -101 -67 21 37 42 323 138 -132 153 140 43 50 23 hstemhm
          52 16 53 201 -194 181 -180 167 43 23 hintmask 1101111100000000
          hintmask 1101111001100000
          363 662 rmoveto
          2 4 -4 14 -2 5 -8 28 -18 30 -27 13 -20 10 -24 9 -22 -4 -6 -1 -11 -3 -1 -5 -3 -11 14 -9 3 10 30 -1 34 -10 20 -22 8 -10 6 -12 3 -13 rrcurveto
          1 -3 2 -17 2 -3 4 -9 12 1 5 9 rrcurveto
          -92 -660 rmoveto
          11 5 10 8 6 10 rrcurveto
          6 12 2 14 13 vvcurveto
          2 29 -5 29 -2 29 -5 51 -3 51 -1 51 rrcurveto
          -1 3 1 4 3 vvcurveto
          17 0 16 -1 17 vhcurveto
          28 -1 27 -3 27 2 rrcurveto
          13 13 2 6 11 hvcurveto
          8 5 8 7 4 8 13 25 0 34 -12 25 rrcurveto
          hintmask 1101111010000000
          -4 11 -9 10 -10 6 -8 5 -10 3 -9 1 rrcurveto
          2 -9 -53 3 -10 hhcurveto
          4 18 0 18 3 18 rrcurveto
          hintmask 1110111100000000
          5 30 5 32 -11 28 -17 42 -72 1 -44 -7 -13 -2 -12 -4 -10 -6 -11 -7 -8 -12 -4 -12 -7 -26 7 -105 4 -27 rrcurveto
          -15 -60 -5 -5 -13 hvcurveto
          -29 -11 -8 -45 4 -30 rrcurveto
          hintmask 1110111001000000
          3 -24 17 -17 25 -4 25 -5 27 7 25 4 -1 -93 -2 -94 -13 -93 -2 -17 -1 -18 5 -16 4 -11 8 -10 11 -6 rrcurveto
          hintmask 1101111001100000
          28 -15 76 3 29 13 rrcurveto
          hintmask 1101111100000000
          -79 -69 rmoveto
          14 1 2 17 -13 4 -5 1 -27 -3 -6 1 -15 1 -41 17 -11 11 -12 12 -6 17 -4 16 -3 10 -15 -4 2 -10 2 -7 1 -7 2 -6 7 -20 13 -20 18 -9 rrcurveto
          14 -8 15 -7 16 -3 rrcurveto
          -4 17 17 0 18 hhcurveto
          endchar
        </CharString>
        <CharString name="three">
          55 -17 112 -91 -21 621 94 72 22 hstemhm
          291 250 -206 167 57 19 hintmask 01110110
          578 580 rmoveto
          4 14 -20 36 -6 13 -2 2 -1 2 -2 1 rrcurveto
          -2 -62 callsubr
          2 vvcurveto
          -1 3 -8 12 -1 3 -19 30 -23 30 -29 20 -34 24 -42 15 -41 2 -28 1 -29 0 -27 -7 -2 -1 -10 -3 -1 -1 -8 -4 6 -10 8 1 34 6 35 3 34 -5 rrcurveto
          35 -5 35 -13 27 -21 32 -24 23 -34 19 -34 10 -19 10 -19 4 -20 2 -11 14 -2 3 10 rrcurveto
          -149 -560 rmoveto
          hintmask 01111010
          36 18 36 28 19 36 19 35 7 42 -5 40 -4 47 -22 49 -33 34 -22 22 -29 16 -30 8 rrcurveto
          hintmask 01110110
          34 16 31 26 20 31 14 22 7 30 -5 26 -3 20 -9 19 -12 17 -19 29 -27 26 -31 15 -29 15 -34 9 -32 2 -68 3 -74 -18 -53 -42 -5 -5 -26 -20 -5 -6 rrcurveto
          -8 -9 -7 -12 -1 -13 -3 -30 31 -19 29 4 17 2 15 8 14 9 23 15 22 20 26 12 17 8 21 4 19 -5 14 -4 13 -9 8 -12 rrcurveto
          7 -11 3 -14 -14 vvcurveto
          -1 -34 -19 -39 -30 -16 rrcurveto
          -8 -13 -17 -2 -15 hhcurveto
          -16 -17 4 -5 -16 hvcurveto
          -18 -7 -13 -19 -5 -19 rrcurveto
          hintmask 10111010
          -5 -22 8 -27 22 -6 5 -2 29 -2 5 -1 32 -5 24 -21 10 -30 14 -47 -9 -57 -29 -38 -15 -19 -22 -18 -24 -5 -12 -2 -13 1 -12 3 -34 11 -25 28 -30 18 rrcurveto
          -16 10 -28 2 -12 -14 -6 -6 0 -12 3 -8 rrcurveto
          -1 0 -9 1 -1 vhcurveto
          5 -16 41 -39 13 -11 42 -34 53 -25 54 -7 rrcurveto
          hintmask 01110110
          69 -9 73 16 63 30 rrcurveto
          endchar
        </CharString>
        <CharString name="trademark">
          139 613 78 -48 48 -43 61 hstemhm
          100 113 51 106 182 106 hintmask 00111100
          175 389 rmoveto
          17 6 11 12 5 17 6 20 0 22 -1 21 rrcurveto
          20 -13 104 -4 19 vhcurveto
          1 -1 2 0 vhcurveto
          3 2 -5 7 3 hhcurveto
          23 -1 25 0 20 12 16 10 3 24 -13 14 rrcurveto
          10 -10 -38 -3 -14 hhcurveto
          -1 -25 -24 1 -24 -23 -22 -2 -23 hhcurveto
          -9 -28 1 -6 -7 hvcurveto
          -3 -3 -3 -5 -1 -4 -5 -21 9 -24 21 -1 rrcurveto
          -1 9 46 5 9 hhcurveto
          2 -1 -1 -2 hvcurveto
          2 -19 -1 -98 -1 -19 -1 -21 -11 -65 12 -18 13 -19 36 -5 21 8 rrcurveto
          461 19 rmoveto
          15 17 0 26 3 22 rrcurveto
          hintmask 10011100
          7 51 1 58 -23 46 -23 47 -53 33 -45 -27 rrcurveto
          hintmask 01011100
          -19 -11 -13 -22 -7 -20 -10 -26 -5 -28 -3 -27 -3 30 -6 31 -12 28 -8 20 -14 20 -20 9 -42 19 -49 -30 -21 -39 -26 -48 1 -60 7 -53 2 -18 2 -19 6 -16 rrcurveto
          5 -11 7 -7 10 -4 19 -8 36 0 14 15 rrcurveto
          7 8 1 11 10 vvcurveto
          34 -17 109 19 28 vhcurveto
          3 5 6 5 5 -3 9 -6 7 -25 2 -11 3 -15 8 -79 5 -15 4 -12 15 -10 13 2 rrcurveto
          1 1 7 -1 1 hhcurveto
          10 1 11 6 4 9 rrcurveto
          hintmask 10011100
          7 16 8 84 4 17 2 11 5 24 12 3 4 1 6 -5 2 -4 18 -25 -13 -94 -2 -31 -2 -15 -2 -16 7 -14 6 -9 12 -6 11 -1 rrcurveto
          hintmask 00111100
          20 -3 25 2 13 15 rrcurveto
          endchar
        </CharString>
        <CharString name="two">
          57 -12 16 -9 -21 69 111 466 97 40 12 hstemhm
          28 104 182 205 44 21 hintmask 10111111
          584 519 rmoveto
          38 -8 39 -15 35 vhcurveto
          -10 23 -13 22 -18 18 -26 26 -34 21 -35 13 -25 10 -28 8 -27 -3 -9 -2 3 -11 9 1 8 1 32 -9 8 -3 38 -13 38 -19 29 -29 32 -31 19 -46 8 -45 rrcurveto
          1 -5 3 -24 -1 -6 rrcurveto
          -5 -1 -5 2 -5 vhcurveto
          3 -12 17 5 13 vvcurveto
          -289 -475 rmoveto
          46 1 47 -3 46 1 rrcurveto
          23 25 2 14 18 hvcurveto
          21 17 3 37 -14 23 -6 10 -12 7 -12 3 -28 10 -130 -11 -30 -1 8 7 43 45 7 8 46 47 42 53 33 57 22 39 20 42 6 44 5 33 -8 36 -12 31 rrcurveto
          -16 39 -28 31 -38 18 -81 38 -103 5 -85 -28 -48 -16 -46 -38 -19 -46 -21 -52 6 -72 36 -43 4 -5 5 -7 6 -1 12 -6 15 -4 13 2 rrcurveto
          21 3 23 19 21 vvcurveto
          -1 20 -18 16 -6 19 -5 21 0 24 7 21 5 16 10 12 15 7 36 19 63 -8 27 -30 12 -14 7 -20 2 -19 4 -30 -6 -32 -9 -30 -18 -61 -40 -55 -43 -47 rrcurveto
          -35 -37 -42 -31 -39 -33 -11 -10 -12 -10 -7 -13 -8 -14 1 -18 2 -16 1 -16 6 -18 13 -10 16 -13 24 -2 21 -1 54 -3 55 5 54 1 rrcurveto
          -41 -51 rmoveto
          -23 6 -103 7 -24 -2 rrcurveto
          -6 -23 0 -3 -5 hvcurveto
          -7 -3 6 -9 8 -1 rrcurveto
          4 22 0 3 hhcurveto
          49 48 -8 -6 48 hvcurveto
          hintmask 01111111
          12 -1 4 16 -13 -70 callsubr
        </CharString>
        <CharString name="u">
          23 54 136 181 64 75 18 hstem
          19 159 328 19 vstem
          555 112 rmoveto
          3 38 -18 38 -13 36 -19 53 -34 135 -53 18 -16 5 -19 2 -16 -6 -9 -3 -9 -6 -6 -8 -8 -8 -4 -11 -3 -11 -10 -40 -12 -39 -13 -39 -6 -20 -8 -20 -14 -16 rrcurveto
          -8 -9 -10 -8 -12 -3 -28 -8 -22 27 -8 29 -4 17 0 18 1 17 4 54 16 52 11 53 4 21 3 23 -9 19 -5 13 -12 9 -13 5 -34 16 -57 -9 -23 -29 rrcurveto
          -23 -30 -14 -122 -3 -37 -3 -55 -5 -57 19 -51 16 -42 31 -34 42 -20 37 -17 48 -4 39 14 34 12 29 26 21 29 22 28 16 33 13 33 4 -47 16 -104 42 -22 rrcurveto
          47 -24 61 34 4 52 rrcurveto
          -30 270 rmoveto
          -2 13 -22 53 -5 12 -18 41 -44 28 -46 -1 -15 -1 -39 -12 -11 -11 -6 -6 10 -8 8 4 18 9 20 8 21 -1 25 -1 26 -13 18 -18 12 -14 7 -18 6 -18 rrcurveto
          6 -17 5 -17 7 -17 4 -11 16 5 -1 11 rrcurveto
          endchar
        </CharString>
        <CharString name="underscore">
          -22 -156 179 hstem
          -18 558 vstem
          436 -155 rmoveto
          21 1 21 2 19 8 12 5 12 9 8 11 18 28 -5 56 -20 27 -6 8 -8 7 -9 3 -11 4 -11 0 -12 1 rrcurveto
          1 -21 -123 4 -21 hhcurveto
          -7 -41 -2 1 -7 hvcurveto
          -22 1 -120 4 -22 -1 -16 -1 -16 -2 -16 -6 -18 -7 -18 -14 -8 -18 -12 -29 4 -41 20 -24 9 -11 13 -8 14 -4 60 -16 276 1 63 -64 callsubr
        </CharString>
        <CharString name="v">
          -31 -23 20 -3 10 49 148 hstemhm
          10 494 hintmask 10110000
          336 79 rmoveto
          29 22 18 33 17 32 28 52 21 56 18 57 15 48 14 48 6 49 2 21 3 25 -13 16 -14 16 -34 10 -20 -6 -23 -8 -17 -54 -7 -23 -7 -22 -34 -136 -7 -23 rrcurveto
          -7 -27 -11 -58 -27 -6 -12 -3 -11 17 -6 11 -14 30 -5 33 -2 32 -4 53 5 54 -15 50 -8 27 -17 27 -25 13 -46 23 -71 -12 -31 -42 -11 -15 -5 -21 3 -18 rrcurveto
          5 -46 16 -43 12 -45 16 -60 21 -60 32 -53 19 -32 24 -32 33 -19 44 -25 62 3 41 31 rrcurveto
          -77 -102 rmoveto
          43 3 41 19 35 24 28 20 23 28 18 30 4 8 -10 8 -7 -6 -5 -5 -23 -32 -5 -5 -29 -32 -40 -23 -42 -13 -26 -8 -30 4 -26 7 rrcurveto
          hintmask 01110000
          -7 2 -7 2 -6 -3 -5 -2 -1 -7 5 -2 -53 callsubr
          12 -7 47 -11 13 1 rrcurveto
          endchar
        </CharString>
        <CharString name="w">
          228 -31 17 48 167 242 63 79 20 hstem
          21 737 vstem
          543 452 rmoveto
          10 -3 10 -2 9 vhcurveto
          -1 6 -2 15 -4 4 rrcurveto
          -1 2 4 1 -1 hvcurveto
          6 -9 21 -2 5 vhcurveto
          -8 18 -13 19 -18 10 -28 15 -35 2 -32 -2 -14 -1 -16 -1 -12 -8 -4 -3 -1 -7 5 -3 5 -2 17 4 5 1 23 2 24 1 23 -4 16 -3 16 -7 11 -11 rrcurveto
          15 -15 8 -21 6 -20 1 -1 3 -3 -1 -1 -1 -2 0 -2 1 -2 2 -8 5 -34 4 -7 rrcurveto
          5 -7 11 3 9 vvcurveto
          -320 -417 rmoveto
          27 4 24 20 17 21 31 41 20 49 16 49 13 -48 14 -52 34 -36 43 -46 89 -19 53 33 33 21 22 37 18 35 26 51 17 57 11 56 10 55 12 55 4 56 rrcurveto
          1 17 1 17 -2 17 -1 13 -2 13 -6 11 -19 32 -53 0 -17 -31 -15 -28 0 -34 -3 -31 -5 -58 -5 -58 -11 -57 -6 -31 -10 -34 -24 -22 -9 -8 -15 -5 -11 4 rrcurveto
          -10 4 -7 10 -6 9 -9 17 -5 18 -6 18 -14 53 8 57 -12 54 -3 16 -5 18 -10 14 -3 5 -6 3 -5 3 -16 6 -41 2 -15 -7 -17 -8 -11 -18 -6 -17 rrcurveto
          -25 -59 7 -69 -25 -60 -7 -16 -16 -29 -17 -1 rrcurveto
          -11 -7 16 10 -3 hvcurveto
          -3 12 -2 13 -2 12 -9 79 8 81 -19 78 -4 15 -4 17 -11 12 -10 13 -17 7 -17 3 -28 6 -63 -1 -20 -21 rrcurveto
          -10 -10 -9 -14 -15 vvcurveto
          -3 -67 4 -68 5 -67 6 -69 8 -70 27 -64 10 -22 11 -24 18 -16 30 -27 46 -16 39 8 rrcurveto
          308 -66 rmoveto
          7 30 4 4 6 hvcurveto
          8 5 -3 12 -9 1 -6 1 -6 -2 -7 -2 -26 -5 -27 -2 -27 2 -2 1 -2 -1 -2 -1 rrcurveto
          -1 -4 3 -1 hhcurveto
          -24 4 -23 10 -21 12 -7 4 -7 3 -6 6 -2 2 -6 9 -2 1 -5 2 -4 -5 -1 -5 rrcurveto
          -7 10 -9 5 -4 vhcurveto
          16 -12 18 -9 18 -9 34 -15 41 -3 38 5 rrcurveto
          endchar
        </CharString>
        <CharString name="x">
          -32 -17 21 656 18 hstem
          9 486 vstem
          240 630 rmoveto
          -11 16 -17 13 -18 10 -19 10 -25 1 -22 -5 -11 -2 -12 -3 -11 -6 -15 -9 1 -15 16 8 21 11 25 6 23 -5 26 -5 19 -22 20 -16 8 -7 8 11 -6 9 rrcurveto
          239 -522 rmoveto
          8 24 -3 27 -6 24 -9 39 -20 36 -22 34 -6 10 -33 48 -8 8 30 31 30 32 22 37 16 26 13 29 3 30 2 18 -3 19 -9 15 -16 26 -38 19 -29 -12 rrcurveto
          -17 -7 -11 -19 -9 -18 -20 -44 -11 -48 -24 -42 -30 43 -28 45 -37 38 -11 12 -13 11 -15 6 -12 5 -14 1 -13 -2 -30 -4 -55 -32 -11 -28 -6 -13 0 -14 7 -12 rrcurveto
          7 -13 50 -49 10 -11 28 -32 26 -34 25 -35 -15 -32 -25 -27 -25 -25 -23 -23 -25 -22 -24 -21 -15 -13 -16 -13 -7 -18 -5 -13 2 -15 6 -12 16 -28 47 -20 31 7 rrcurveto
          26 7 22 21 18 20 28 33 24 37 22 37 26 -41 15 -47 29 -40 9 -12 12 -11 13 -7 45 -20 65 28 16 46 rrcurveto
          -35 -111 rmoveto
          11 4 12 4 7 9 7 10 -15 7 -12 -5 rrcurveto
          -10 -21 -21 -12 -24 hhcurveto
          -36 -1 -41 19 -19 30 -3 4 -10 16 -3 2 -5 5 -7 -5 2 -6 5 -17 11 -16 13 -13 24 -24 36 -13 33 -2 20 -1 19 7 17 8 rrcurveto
          endchar
        </CharString>
        <CharString name="y">
          26 134 91 hstemhm
          18 148 -117 14 109 11 hintmask 11000000
          566 589 rmoveto
          -5 10 -30 24 -10 6 -17 10 -19 7 -19 4 -19 5 -19 3 -18 -2 -8 -1 -5 -9 6 -4 7 -5 9 2 8 -1 33 -1 33 -13 28 -18 12 -8 9 -13 13 -7 rrcurveto
          6 -4 8 8 -3 7 rrcurveto
          -229 -685 rmoveto
          12 1 12 4 9 8 10 8 8 12 5 12 11 29 39 158 7 30 16 65 21 64 18 65 8 30 7 30 5 31 4 29 4 31 -12 27 -5 12 -13 9 -12 6 rrcurveto
          6 -14 -55 14 -14 hhcurveto
          -10 -10 -2 -6 -7 hvcurveto
          -35 -28 -20 -135 -10 -43 -8 -32 -8 -31 -16 -29 -11 -20 -15 -21 -21 -9 -22 -10 -28 8 -13 21 rrcurveto
          -7 11 -1 14 12 vvcurveto
          21 4 21 5 20 vhcurveto
          11 46 16 44 14 44 6 19 5 19 1 19 1 15 -3 16 -9 10 -22 24 -55 9 -31 -12 -13 -5 -12 -11 -8 -13 -11 -16 -8 -19 -6 -18 -25 -77 -17 -85 14 -80 rrcurveto
          7 -36 18 -35 26 -25 25 -25 36 -17 35 -4 20 -2 21 3 18 8 29 13 24 25 21 25 -28 -63 -38 -60 -17 -67 -12 -47 26 -47 48 -12 18 -4 18 -4 19 2 -53 callsubr
          -161 173 rmoveto
          4 9 1 14 -10 hhcurveto
          -1 1 -3 -1 0 vvcurveto
          -38 -41 8 23 -30 hvcurveto
          -2 8 -13 -1 1 -9 rrcurveto
          -7 14 -11 6 -5 vhcurveto
          13 -9 16 -5 15 -5 13 -3 38 -8 12 6 rrcurveto
          endchar
        </CharString>
        <CharString name="yen">
          41 16 -21 172 84 -69 70 20 88 388 19 hstemhm
          10 551 hintmask 10101100
          336 653 rmoveto
          13 25 12 26 21 18 12 12 17 6 16 5 19 5 20 0 19 -2 rrcurveto
          6 24 -4 2 6 hvcurveto
          10 2 -1 14 -10 2 -27 7 -28 1 -28 -5 -20 -4 -19 -8 -17 -12 -20 -13 -14 -21 -11 -21 -5 -10 -7 -11 1 -11 rrcurveto
          -7 9 -1 2 5 vhcurveto
          23 -647 rmoveto
          11 6 10 9 7 11 rrcurveto
          hintmask 11001100
          11 20 23 96 5 22 31 -4 59 -5 16 26 11 19 -7 29 -19 9 -21 11 -27 -2 -24 -2 18 72 25 71 27 69 -73 callsubr
          rrcurveto
          -75 callsubr
          -23 -17 -13 -29 -11 -26 rrcurveto
          hintmask 10111100
          -102 callsubr
          rrcurveto
          hintmask 10101100
          -2 -7 -3 -8 -2 -8 -18 3 -72 1 -17 -4 -26 -7 -8 -39 20 -16 17 -14 60 4 22 2 -5 -21 -6 -20 -5 -20 -7 -28 -7 -35 15 -25 12 -20 24 -13 22 -5 rrcurveto
          27 -5 30 3 24 13 rrcurveto
          endchar
        </CharString>
        <CharString name="z">
          -5 30 144 0 12 167 221 50 13 hstemhm
          14 520 hintmask 01111000
          533 512 rmoveto
          3 10 -6 12 -6 8 -18 27 -20 27 -28 16 -31 18 -37 4 -35 3 -9 1 -33 3 -8 -3 -5 -2 0 -6 3 -3 rrcurveto
          -2 3 10 -1 4 hhcurveto
          13 -1 64 -10 13 -3 20 -5 19 -10 15 -14 23 -19 15 -27 16 -25 4 -6 9 2 2 6 rrcurveto
          hintmask 10111000
          -198 -465 rmoveto
          24 2 84 0 20 13 rrcurveto
          hintmask 01111000
          10 7 6 12 3 12 6 22 0 26 -13 19 -3 6 -6 5 -6 4 -34 22 -116 -16 -41 -7 rrcurveto
          1 -62 callsubr
          1 vvcurveto
          2 7 18 23 4 5 47 58 61 47 43 60 15 21 13 24 3 25 6 39 -18 39 -32 21 -21 12 -25 4 -23 3 -69 10 -69 -1 -69 -4 -34 -2 -38 -4 -27 -21 rrcurveto
          -30 -24 -22 -66 10 -36 5 -17 10 -16 14 -10 18 -14 23 -6 23 -2 51 -5 51 4 51 1 -22 -24 -22 -24 -24 -21 -38 -33 -40 -29 -34 -37 rrcurveto
          hintmask 10111000
          -22 -24 -21 -29 -7 -33 -2 -12 2 -15 6 -12 7 -10 11 -7 11 -4 rrcurveto
          -8 21 23 -1 22 hhcurveto
          67 68 11 6 67 hvcurveto
          endchar
        </CharString>
        <CharString name="zero">
          -6 -26 19 63 107 396 103 90 20 hstem
          28 205 165 111 vstem
          123 703 rmoveto
          1 2 10 8 2 2 18 15 23 9 23 6 42 10 45 -1 41 -10 14 -3 14 -3 12 -6 11 -6 11 -7 10 -6 9 -6 11 9 -5 10 -2 3 -11 8 -3 2 rrcurveto
          -49 31 -65 8 -58 -6 -32 -4 -32 -13 -28 -17 -11 -7 -9 -10 -7 -11 -6 -8 13 -4 8 5 rrcurveto
          198 -642 rmoveto
          35 7 33 18 26 25 28 26 23 33 15 35 17 42 8 46 3 45 3 46 -1 47 -12 44 -15 50 -23 52 -39 35 -33 30 -48 17 -45 3 -23 2 -24 -2 -23 -6 rrcurveto
          -8 -2 -8 -3 -8 -3 -27 -7 -27 -15 -21 -20 -26 -25 -21 -32 -15 -33 -37 -80 -10 -98 21 -85 12 -53 28 -51 40 -36 52 -46 82 -21 68 15 rrcurveto
          -43 111 rmoveto
          -16 13 -9 20 -6 19 -10 32 -3 33 -1 33 -2 39 0 40 6 39 5 30 8 32 19 25 9 11 9 11 13 7 12 6 12 1 13 -4 22 -7 22 -47 6 -22 rrcurveto
          12 -42 0 -45 -1 -44 -2 -41 -5 -43 -16 -38 -8 -19 -11 -20 -15 -14 -8 -7 -10 -5 -10 -2 -12 -2 -13 4 -10 7 rrcurveto
          11 -198 rmoveto
          47 4 45 25 36 31 9 8 -8 13 -11 -3 -4 -1 -14 -10 -3 -2 -27 -19 -31 -16 -32 -7 -43 -8 -50 5 -37 22 rrcurveto
          2 -4 -3 4 -4 hhcurveto
          -3 1 -3 4 -3 2 -6 3 -6 -7 4 -6 1 -1 5 -4 1 -1 1 -2 1 -3 1 -1 12 -10 15 -6 14 -5 31 -13 36 -2 33 3 rrcurveto
          endchar
        </CharString>
</ttFont>
